<?xml version="1.0" encoding="utf-8"?>
<!-- Generator: Adobe Illustrator 14.0.0, SVG Export Plug-In . SVG Version: 6.00 Build 43363)  -->
<!DOCTYPE svg PUBLIC "-//W3C//DTD SVG 1.1//EN" "http://www.w3.org/Graphics/SVG/1.1/DTD/svg11.dtd">
<svg version="1.1" xmlns="http://www.w3.org/2000/svg" xmlns:xlink="http://www.w3.org/1999/xlink" x="0px" y="0px" width="440px"
	 height="305px" viewBox="0 0 440 305" enable-background="new 0 0 440 305" xml:space="preserve">
<g id="segédvonal" display="none">
</g>
<g id="Layer_2" display="none">
	<rect display="inline" fill="#FD6120" width="440" height="305"/>
</g>
<g id="elemek" display="none">
	<g display="inline">
		<g>
			<g>
				<path fill="#FFFFFF" d="M286.854,100.937c-1.463,0-2.742-0.99-3.108-2.408l-4.686-18.21c-0.214-0.826-0.092-1.689,0.343-2.428
					c0.438-0.739,1.136-1.265,1.966-1.478l27.83-7.166c0.262-0.066,0.531-0.102,0.799-0.102c1.464,0,2.74,0.99,3.109,2.408
					l4.687,18.208c0.213,0.83,0.091,1.695-0.347,2.435c-0.435,0.737-1.132,1.261-1.959,1.474l-27.832,7.166
					C287.392,100.901,287.122,100.937,286.854,100.937L286.854,100.937z M309.997,71.265c-0.091,0-0.183,0.013-0.271,0.035
					l-27.83,7.166c-0.281,0.072-0.521,0.25-0.669,0.503c-0.147,0.25-0.188,0.542-0.118,0.821L285.799,98
					c0.146,0.569,0.751,0.934,1.327,0.783l27.831-7.167c0.282-0.07,0.517-0.248,0.666-0.499c0.147-0.253,0.188-0.545,0.116-0.826
					l-4.687-18.21C310.93,71.602,310.495,71.265,309.997,71.265L309.997,71.265z"/>
			</g>
			<g>
				<path fill="#FFFFFF" d="M286.867,100.934c-1.023,0-2.021-0.497-2.63-1.359l-0.422-0.596l8.776-13.09l1.759,1.18l-7.836,11.692
					c0.192,0.065,0.403,0.075,0.611,0.021l27.831-7.167c0.21-0.052,0.389-0.164,0.526-0.313l-12.659-6.531l0.973-1.883l14.155,7.3
					l-0.083,0.727c-0.149,1.337-1.084,2.418-2.382,2.753l-27.832,7.166C287.396,100.901,287.13,100.934,286.867,100.934
					L286.867,100.934z"/>
			</g>
			<g>
				<path fill="#FFFFFF" d="M299.889,90.715l-20.989-10.823l0.083-0.727c0.15-1.32,1.109-2.426,2.389-2.753l27.827-7.166
					c1.279-0.33,2.662,0.19,3.417,1.267l0.419,0.594L299.889,90.715L299.889,90.715z M281.368,78.78l17.813,9.185l11.158-16.642
					c-0.193-0.065-0.405-0.075-0.612-0.023l-27.83,7.166C281.689,78.519,281.507,78.629,281.368,78.78L281.368,78.78z"/>
			</g>
		</g>
		<g>
			<g>
				<path fill="#FFFFFF" d="M380,164.555h-61.468v-53.696H380V164.555L380,164.555z M320.651,162.436h57.229v-49.458h-57.229
					V162.436L320.651,162.436z"/>
			</g>
			<g>
				<path fill="#FFFFFF" d="M373.641,158.196h-48.75v-40.979h48.75V158.196L373.641,158.196z M327.01,156.076h44.512v-36.739H327.01
					V156.076L327.01,156.076z"/>
			</g>
			<g>
				<polygon fill="#FFFFFF" points="370.479,150.169 361.198,142.215 350.518,149.334 336.71,134.479 326.712,144.803 
					325.191,143.329 336.741,131.398 350.843,146.57 361.358,139.562 371.858,148.559 370.479,150.169 				"/>
			</g>
			<g>
				<path fill="#FFFFFF" d="M351.828,136.382c-3.653,0-6.623-2.972-6.623-6.624c0-3.652,2.97-6.624,6.623-6.624
					c3.65,0,6.625,2.972,6.625,6.624C358.453,133.411,355.479,136.382,351.828,136.382L351.828,136.382z M351.828,125.255
					c-2.484,0-4.504,2.02-4.504,4.504s2.02,4.504,4.504,4.504c2.483,0,4.504-2.021,4.504-4.504S354.312,125.255,351.828,125.255
					L351.828,125.255z"/>
			</g>
		</g>
		<g>
			<g>
				<path fill="#FFFFFF" d="M127.712,263.669h-25.82c-1.583,0-2.87-1.289-2.87-2.871v-16.492c0-1.583,1.287-2.871,2.87-2.871h25.82
					c1.584,0,2.871,1.288,2.871,2.871v16.492C130.583,262.38,129.296,263.669,127.712,263.669L127.712,263.669z M101.892,243.555
					c-0.413,0-0.751,0.337-0.751,0.751v16.492c0,0.414,0.338,0.752,0.751,0.752h25.82c0.415,0,0.751-0.338,0.751-0.752v-16.492
					c0-0.414-0.336-0.751-0.751-0.751H101.892L101.892,243.555z"/>
			</g>
			<g>
				<path fill="#FFFFFF" d="M140.334,264.133l-12.044-5.99v-11.187l12.044-5.988V264.133L140.334,264.133z M130.408,256.829
					l7.807,3.882v-16.322l-7.807,3.879V256.829L130.408,256.829z"/>
			</g>
			<g>
				<path fill="#FFFFFF" d="M107.151,242.86c-3.998,0-7.251-3.253-7.251-7.251c0-3.997,3.253-7.251,7.251-7.251
					s7.249,3.254,7.249,7.251C114.4,239.607,111.149,242.86,107.151,242.86L107.151,242.86z M107.151,230.479
					c-2.831,0-5.134,2.301-5.134,5.131s2.303,5.132,5.134,5.132c2.829,0,5.13-2.302,5.13-5.132S109.979,230.479,107.151,230.479
					L107.151,230.479z"/>
			</g>
			<g>
				<path fill="#FFFFFF" d="M120.44,242.86c-4.002,0-7.255-3.253-7.255-7.251c0-3.997,3.253-7.251,7.255-7.251
					c3.997,0,7.249,3.254,7.249,7.251C127.689,239.607,124.438,242.86,120.44,242.86L120.44,242.86z M120.44,230.479
					c-2.833,0-5.135,2.301-5.135,5.131s2.302,5.132,5.135,5.132c2.827,0,5.13-2.302,5.13-5.132S123.268,230.479,120.44,230.479
					L120.44,230.479z"/>
			</g>
		</g>
		<g>
			<g>
				<polygon fill="#FFFFFF" points="160.933,304.123 158.812,304.123 158.812,293.606 169.33,293.606 169.33,295.726 
					160.933,295.726 160.933,304.123 				"/>
			</g>
			<g>
				<path fill="#FFFFFF" d="M160.311,305.183h-17.781v-34.474h27.86v24.396L160.311,305.183L160.311,305.183z M144.647,303.063
					h14.785l8.836-8.837v-21.398h-23.621V303.063L144.647,303.063z"/>
			</g>
			<g>
				<polygon fill="#FFFFFF" points="158.165,278.806 148.907,278.806 148.907,276.687 158.165,276.687 158.165,278.806 				"/>
			</g>
			<g>
				<polygon fill="#FFFFFF" points="164.273,282.616 148.907,282.616 148.907,280.497 164.273,280.497 164.273,282.616 				"/>
			</g>
			<g>
				<polygon fill="#FFFFFF" points="164.273,286.426 148.907,286.426 148.907,284.307 164.273,284.307 164.273,286.426 				"/>
			</g>
			<g>
				<polygon fill="#FFFFFF" points="155.341,290.234 148.907,290.234 148.907,288.114 155.341,288.114 155.341,290.234 				"/>
			</g>
		</g>
	</g>
</g>
<g id="nyil">
	<g>
		<polygon fill="#C1E2DE" points="397.987,220.874 373.87,213.038 349.754,205.198 357.59,229.316 365.428,253.433 373.899,236.938 
			386.775,249.814 394.365,242.224 381.49,229.347 		"/>
		<polygon fill="#FFFFFF" points="373.87,213.038 349.754,205.198 350.015,206.005 390.302,246.289 394.365,242.224 381.49,229.347 
			397.987,220.874 		"/>
	</g>
</g>
<g id="billentyu" display="none">
	<g display="inline">
		<g>
			<g>
				<path fill="#36D3DE" d="M234.148,201.934H218.29l-3.298-11.959h22.453L234.148,201.934L234.148,201.934z M219.905,199.814
					h12.629l2.127-7.721h-16.886L219.905,199.814L219.905,199.814z"/>
			</g>
			<g>
				<polygon fill="#36D3DE" points="218.076,201.154 214.538,188.246 211.247,188.103 211.339,185.984 216.175,186.194 
					220.117,200.593 218.076,201.154 				"/>
			</g>
			<g>
				<path fill="#36D3DE" d="M221.628,208.239c-1.608,0-2.916-1.308-2.916-2.914c0-1.608,1.308-2.915,2.916-2.915
					c1.606,0,2.913,1.307,2.913,2.915C224.541,206.932,223.234,208.239,221.628,208.239L221.628,208.239z M221.628,204.53
					c-0.44,0-0.795,0.356-0.795,0.795c0,0.438,0.354,0.795,0.795,0.795c0.437,0,0.795-0.357,0.795-0.795
					C222.423,204.887,222.064,204.53,221.628,204.53L221.628,204.53z"/>
			</g>
			<g>
				<path fill="#36D3DE" d="M230.459,208.239c-1.608,0-2.913-1.308-2.913-2.914c0-1.608,1.305-2.915,2.913-2.915
					c1.606,0,2.915,1.307,2.915,2.915C233.374,206.932,232.065,208.239,230.459,208.239L230.459,208.239z M230.459,204.53
					c-0.439,0-0.795,0.356-0.795,0.795c0,0.438,0.355,0.795,0.795,0.795c0.438,0,0.795-0.357,0.795-0.795
					C231.254,204.887,230.896,204.53,230.459,204.53L230.459,204.53z"/>
			</g>
		</g>
		<g>
			<path fill="#FFFFFF" d="M94.201,208.718c-4.083,0-7.405-3.322-7.405-7.406V69.254c0-4.084,3.322-7.406,7.405-7.406h159.412
				c4.08,0,7.401,3.322,7.401,7.406v132.058c0,4.084-3.321,7.406-7.401,7.406H94.201z"/>
			<path fill="#FFFFFF" d="M253.612,62.779c3.566,0,6.472,2.904,6.472,6.475v132.058c0,3.57-2.905,6.475-6.472,6.475H94.201
				c-3.57,0-6.475-2.904-6.475-6.475V69.254c0-3.571,2.905-6.475,6.475-6.475H253.612 M253.612,60.918H94.201
				c-4.602,0-8.334,3.732-8.334,8.336v132.058c0,4.605,3.733,8.336,8.334,8.336h159.412c4.603,0,8.331-3.73,8.331-8.336V69.254
				C261.943,64.65,258.215,60.918,253.612,60.918L253.612,60.918z"/>
		</g>
		<path fill="#E8E8E8" d="M253.612,60.918H94.201c-4.602,0-8.334,3.732-8.334,8.336v15.787h176.077V69.254
			C261.943,64.65,258.215,60.918,253.612,60.918z"/>
		<rect x="141.959" y="69.057" fill="#FFFFFF" width="107.838" height="8.369"/>
		<rect x="186.828" y="235.126" fill="#FFFFFF" width="160.497" height="70.739"/>
		<rect x="186.828" y="232.983" fill="#FFFFFF" width="160.497" height="70.739"/>
		<g>
			<g>
				<rect x="198.725" y="246.864" fill="#B7C9CB" width="11.319" height="11.319"/>
				<rect x="214.399" y="246.864" fill="#B7C9CB" width="11.318" height="11.319"/>
				<rect x="230.073" y="246.864" fill="#B7C9CB" width="11.316" height="11.319"/>
				<rect x="245.747" y="246.864" fill="#B7C9CB" width="11.318" height="11.319"/>
				<rect x="261.416" y="246.864" fill="#B7C9CB" width="11.321" height="11.319"/>
				<rect x="277.092" y="246.864" fill="#B7C9CB" width="11.321" height="11.319"/>
				<rect x="292.766" y="246.864" fill="#B7C9CB" width="11.319" height="11.319"/>
				<rect x="308.438" y="246.864" fill="#B7C9CB" width="11.319" height="11.319"/>
				<rect x="324.112" y="246.864" fill="#B7C9CB" width="11.32" height="11.319"/>
			</g>
			<g>
				<rect x="198.725" y="262.493" fill="#B7C9CB" width="11.319" height="11.317"/>
				<rect x="214.399" y="262.493" fill="#B7C9CB" width="11.318" height="11.317"/>
				<rect x="230.073" y="262.493" fill="#B7C9CB" width="11.316" height="11.317"/>
				<rect x="245.747" y="262.493" fill="#B7C9CB" width="11.318" height="11.317"/>
				<rect x="261.416" y="262.493" fill="#B7C9CB" width="11.321" height="11.317"/>
				<rect x="277.092" y="262.493" fill="#B7C9CB" width="11.321" height="11.317"/>
				<rect x="292.766" y="262.493" fill="#B7C9CB" width="11.319" height="11.317"/>
				<rect x="308.438" y="262.493" fill="#B7C9CB" width="11.319" height="11.317"/>
				<rect x="324.112" y="262.493" fill="#B7C9CB" width="11.32" height="11.317"/>
			</g>
			<g>
				<rect x="198.725" y="278.12" fill="#B7C9CB" width="11.319" height="11.319"/>
				<polygon fill="#B7C9CB" points="283.727,278.12 277.092,278.12 214.399,278.12 214.399,289.439 277.092,289.439 
					283.727,289.439 288.413,289.439 288.413,278.12 				"/>
				<rect x="292.766" y="278.12" fill="#B7C9CB" width="11.319" height="11.319"/>
				<rect x="308.438" y="278.12" fill="#B7C9CB" width="11.319" height="11.319"/>
				<rect x="324.112" y="278.12" fill="#B7C9CB" width="11.32" height="11.319"/>
			</g>
		</g>
		<g>
			<g>
				<rect x="198.725" y="244.917" fill="#E8E8E8" width="11.319" height="11.32"/>
				<rect x="214.399" y="244.917" fill="#E8E8E8" width="11.318" height="11.32"/>
				<rect x="230.073" y="244.917" fill="#E8E8E8" width="11.316" height="11.32"/>
				<rect x="245.747" y="244.917" fill="#E8E8E8" width="11.318" height="11.32"/>
				<rect x="261.416" y="244.917" fill="#E8E8E8" width="11.321" height="11.32"/>
				<rect x="277.092" y="244.917" fill="#E8E8E8" width="11.321" height="11.32"/>
				<rect x="292.766" y="244.917" fill="#E8E8E8" width="11.319" height="11.32"/>
				<rect x="308.438" y="244.917" fill="#E8E8E8" width="11.319" height="11.32"/>
				<rect x="324.112" y="244.917" fill="#E8E8E8" width="11.32" height="11.32"/>
			</g>
			<g>
				<rect x="198.725" y="260.546" fill="#E8E8E8" width="11.319" height="11.319"/>
				<rect x="214.399" y="260.546" fill="#E8E8E8" width="11.318" height="11.319"/>
				<rect x="230.073" y="260.546" fill="#E8E8E8" width="11.316" height="11.319"/>
				<rect x="245.747" y="260.546" fill="#E8E8E8" width="11.318" height="11.319"/>
				<rect x="261.416" y="260.546" fill="#E8E8E8" width="11.321" height="11.319"/>
				<rect x="277.092" y="260.546" fill="#E8E8E8" width="11.321" height="11.319"/>
				<rect x="292.766" y="260.546" fill="#E8E8E8" width="11.319" height="11.319"/>
				<rect x="308.438" y="260.546" fill="#E8E8E8" width="11.319" height="11.319"/>
				<rect x="324.112" y="260.546" fill="#E8E8E8" width="11.32" height="11.319"/>
			</g>
			<g>
				<rect x="198.725" y="276.173" fill="#E8E8E8" width="11.319" height="11.319"/>
				<polygon fill="#E8E8E8" points="283.727,276.173 277.092,276.173 214.399,276.173 214.399,287.492 277.092,287.492 
					283.727,287.492 288.413,287.492 288.413,276.173 				"/>
				<rect x="292.766" y="276.173" fill="#E8E8E8" width="11.319" height="11.319"/>
				<rect x="308.438" y="276.173" fill="#E8E8E8" width="11.319" height="11.319"/>
				<rect x="324.112" y="276.173" fill="#E8E8E8" width="11.32" height="11.319"/>
			</g>
		</g>
		<g>
			<rect x="96.561" y="107.643" fill="#2DAEB7" width="44.143" height="44.146"/>
			<path fill="#2DAEB7" d="M139.973,108.375v42.683h-42.68v-42.683H139.973 M141.436,106.912H95.83v45.609h45.606V106.912
				L141.436,106.912z"/>
		</g>
		<g>
			<rect x="150.309" y="107.643" fill="#FD6120" width="44.142" height="44.146"/>
			<path fill="#FD6120" d="M193.72,108.375v42.683h-42.681v-42.683H193.72 M195.183,106.912h-45.608v45.609h45.608V106.912
				L195.183,106.912z"/>
		</g>
		<rect x="204.904" y="108.497" fill="#C2D64C" width="42.443" height="42.44"/>
		<g>
			<g>
				<path fill="none" d="M204.786,151.057"/>
			</g>
			<g>
				<path fill="none" d="M247.464,108.378"/>
			</g>
		</g>
		<g>
			<rect x="95.83" y="161.817" fill="#C5E0EF" width="44.674" height="1.626"/>
			<rect x="95.83" y="166.044" fill="#C5E0EF" width="40.652" height="1.625"/>
			<rect x="95.83" y="170.268" fill="#C5E0EF" width="44.674" height="1.629"/>
			<rect x="95.83" y="174.493" fill="#C5E0EF" width="35.653" height="1.627"/>
			<g>
				<rect x="95.83" y="157.794" fill="#8FC4D7" width="24.13" height="1.627"/>
			</g>
		</g>
		<g>
			<rect x="149.575" y="161.817" fill="#C5E0EF" width="44.675" height="1.626"/>
			<rect x="149.575" y="166.044" fill="#C5E0EF" width="40.653" height="1.625"/>
			<rect x="149.575" y="170.268" fill="#C5E0EF" width="44.675" height="1.629"/>
			<rect x="149.575" y="174.493" fill="#C5E0EF" width="35.656" height="1.627"/>
			<g>
				<rect x="149.575" y="157.794" fill="#8FC4D7" width="24.131" height="1.627"/>
			</g>
		</g>
		<g>
			<rect x="203.319" y="161.817" fill="#C5E0EF" width="44.677" height="1.626"/>
			<rect x="203.319" y="166.044" fill="#C5E0EF" width="40.656" height="1.625"/>
			<rect x="203.319" y="170.268" fill="#C5E0EF" width="44.677" height="1.629"/>
			<rect x="203.319" y="174.493" fill="#C5E0EF" width="35.657" height="1.627"/>
			<g>
				<rect x="203.319" y="157.794" fill="#A8B442" width="24.13" height="1.627"/>
			</g>
		</g>
		<g>
			<g>
				<path fill="#FFFFFF" d="M243.099,189.639h84.254c1.018,0,1.843-0.825,1.843-1.846c0-1.02-0.825-1.845-1.843-1.845h-84.254
					c-10.671,0-19.353-8.682-19.353-19.353c0-1.016-0.826-1.845-1.844-1.845c-1.021,0-1.846,0.829-1.846,1.845
					C220.057,179.302,230.393,189.639,243.099,189.639L243.099,189.639z"/>
			</g>
			<g>
				<path fill="#FFFFFF" d="M290.977,211.718h43.882c7.105,0,12.885-5.78,12.885-12.885s-5.779-12.885-12.885-12.885h-43.882
					c-1.018,0-1.846,0.825-1.846,1.845c0,1.021,0.828,1.846,1.846,1.846h43.882c5.07,0,9.192,4.125,9.192,9.194
					c0,5.07-4.122,9.193-9.192,9.193h-43.882c-1.018,0-1.846,0.826-1.846,1.847S289.959,211.718,290.977,211.718L290.977,211.718z"
					/>
			</g>
			<g>
				<path fill="#FFFFFF" d="M320.283,278.846c1.02,0,1.846-0.826,1.846-1.845v-43.883c0-7.105-5.78-12.885-12.885-12.885
					c-1.019,0-1.847,0.826-1.847,1.845c0,1.021,0.828,1.847,1.847,1.847c5.069,0,9.192,4.125,9.192,9.193v43.883
					C318.437,278.02,319.265,278.846,320.283,278.846L320.283,278.846z"/>
			</g>
			<g>
				<path fill="#FFFFFF" d="M285.105,223.929h24.221c1.019,0,1.845-0.826,1.845-1.846c0-1.019-0.826-1.846-1.845-1.846h-24.221
					c-2.344,0-4.251-1.905-4.251-4.249c0-2.343,1.907-4.248,4.251-4.248h24.221c1.019,0,1.845-0.824,1.845-1.845
					c0-1.018-0.826-1.847-1.845-1.847h-24.221c-4.378,0-7.94,3.563-7.94,7.939C277.165,220.367,280.728,223.929,285.105,223.929
					L285.105,223.929z"/>
			</g>
		</g>
	</g>
</g>
</svg>
