<?xml version="1.0" encoding="utf-8"?>
<!-- Generator: Adobe Illustrator 14.0.0, SVG Export Plug-In . SVG Version: 6.00 Build 43363)  -->
<!DOCTYPE svg PUBLIC "-//W3C//DTD SVG 1.1//EN" "http://www.w3.org/Graphics/SVG/1.1/DTD/svg11.dtd">
<svg version="1.1" xmlns="http://www.w3.org/2000/svg" xmlns:xlink="http://www.w3.org/1999/xlink" x="0px" y="0px" width="440px"
	 height="305px" viewBox="0 0 440 305" enable-background="new 0 0 440 305" xml:space="preserve">
<g id="segédvonal">
</g>
<g id="Layer_2" display="none">
	<rect display="inline" fill="#174F78" width="440" height="305"/>
</g>
<g id="notebook" display="none">
	<g display="inline">
		<path fill="#CCCCCC" d="M321.951,208.32H109.093V72.291c0-3.097,2.778-5.615,6.208-5.615h200.44c3.431,0,6.21,2.518,6.21,5.615
			V208.32z"/>
		<g>
			<path fill="#FFFFFF" d="M219.154,71.959c0,1.811-1.475,3.298-3.301,3.298l0,0c-1.823,0-3.299-1.488-3.299-3.298l0,0
				c0-1.826,1.476-3.3,3.299-3.3l0,0C217.68,68.659,219.154,70.133,219.154,71.959L219.154,71.959z"/>
			<path fill="#B3B9C1" d="M215.854,69.57c1.319,0,2.387,1.072,2.387,2.389c0,1.301-1.067,2.372-2.387,2.372
				c-1.303,0-2.373-1.071-2.373-2.372C213.48,70.642,214.551,69.57,215.854,69.57 M215.854,68.659c-1.823,0-3.299,1.474-3.299,3.3
				c0,1.811,1.476,3.298,3.299,3.298c1.826,0,3.301-1.488,3.301-3.298C219.154,70.133,217.68,68.659,215.854,68.659L215.854,68.659z
				"/>
		</g>
		<path fill="#FFFFFF" d="M328.61,301.202c-0.031-0.333-0.522-0.593-1.115-0.593H103.492c-0.595,0-1.085,0.26-1.116,0.593
			l-0.289,4.357h226.812L328.61,301.202z"/>
		<path fill="#FFFFFF" d="M327.9,303.241H103.346c-0.609,0-1.071-0.462-1.028-1.024l6.89-100.28h212.814l6.906,100.28
			C328.969,302.779,328.509,303.241,327.9,303.241z"/>
		<polygon fill="#999999" points="128.776,229.12 141.312,229.12 141.804,219.045 129.327,219.045 		"/>
		<polygon fill="#999999" points="144.526,229.12 157.059,229.12 157.435,219.045 144.973,219.045 		"/>
		<polygon fill="#999999" points="160.75,229.12 173.3,229.12 173.561,219.045 161.111,219.045 		"/>
		<polygon fill="#999999" points="176.484,229.12 189.034,229.12 189.207,219.045 176.743,219.045 		"/>
		<polygon fill="#999999" points="160.271,243.088 172.921,243.088 173.185,233.016 160.621,233.016 		"/>
		<polygon fill="#999999" points="176.137,243.088 188.802,243.088 188.961,233.016 176.396,233.016 		"/>
		<polygon fill="#999999" points="159.375,270.546 172.242,270.546 172.519,260.471 159.722,260.471 		"/>
		<polygon fill="#999999" points="175.789,256.953 188.556,256.953 188.73,246.88 176.048,246.88 		"/>
		<polygon fill="#999999" points="128.01,243.088 156.162,243.088 156.538,233.016 128.559,233.016 		"/>
		<polygon fill="#999999" points="192.378,229.12 204.911,229.12 204.986,219.045 192.522,219.045 		"/>
		<polygon fill="#999999" points="208.11,229.12 220.659,229.12 220.629,219.045 208.152,219.045 		"/>
		<polygon fill="#999999" points="224.336,229.12 236.887,229.12 236.756,219.045 224.279,219.045 		"/>
		<polygon fill="#999999" points="240.083,229.12 252.62,229.12 252.389,219.045 239.925,219.045 		"/>
		<polygon fill="#999999" points="224.424,243.088 237.073,243.088 236.93,233.016 224.365,233.016 		"/>
		<polygon fill="#999999" points="240.3,243.088 252.967,243.088 252.721,233.016 240.141,233.016 		"/>
		<polygon fill="#999999" points="192.161,243.088 204.825,243.088 204.883,233.016 192.318,233.016 		"/>
		<polygon fill="#999999" points="208.038,243.088 220.69,243.088 220.659,233.016 208.097,233.016 		"/>
		<polygon fill="#999999" points="256.063,229.12 268.611,229.12 268.281,219.045 255.805,219.045 		"/>
		<polygon fill="#999999" points="272.304,229.12 284.839,229.12 284.405,219.045 271.927,219.045 		"/>
		<polygon fill="#999999" points="288.05,229.12 300.589,229.12 300.038,219.045 287.588,219.045 		"/>
		<polygon fill="#999999" points="272.799,243.088 285.461,243.088 285.012,233.016 272.45,233.016 		"/>
		<polygon fill="#999999" points="288.689,243.088 301.342,243.088 300.788,233.016 288.227,233.016 		"/>
		<polygon fill="#999999" points="256.428,243.088 269.093,243.088 268.744,233.016 256.166,233.016 		"/>
		<polygon fill="#999999" points="224.625,256.953 237.393,256.953 237.248,246.88 224.565,246.88 		"/>
		<polygon fill="#999999" points="240.633,256.953 253.401,256.953 253.17,246.88 240.489,246.88 		"/>
		<polygon fill="#999999" points="192.087,256.953 204.854,256.953 204.911,246.88 192.233,246.88 		"/>
		<polygon fill="#999999" points="208.097,256.953 220.861,256.953 220.834,246.88 208.152,246.88 		"/>
		<polygon fill="#999999" points="256.903,256.953 269.671,256.953 269.337,246.88 256.643,246.88 		"/>
		<polygon fill="#999999" points="257.57,270.546 270.451,270.546 270.105,260.471 257.31,260.471 		"/>
		<polygon fill="#999999" points="273.724,270.546 286.604,270.546 286.171,260.471 273.375,260.471 		"/>
		<polygon fill="#999999" points="290.137,270.546 303.019,270.546 302.47,260.471 289.674,260.471 		"/>
		<polygon fill="#999999" points="142.7,270.546 155.584,270.546 155.96,260.471 143.164,260.471 		"/>
		<polygon fill="#999999" points="126.548,270.546 139.432,270.546 139.907,260.471 127.113,260.471 		"/>
		<polygon fill="#999999" points="127.243,256.953 172.547,256.953 172.808,246.88 127.791,246.88 		"/>
		<polygon fill="#999999" points="273.304,256.953 302.094,256.953 301.545,246.88 272.942,246.88 		"/>
		<polygon fill="#999999" points="175.53,270.546 253.793,270.546 253.545,260.471 175.776,260.471 		"/>
		<polygon fill="#FFFFFF" points="128.876,227.311 141.399,227.311 141.891,217.236 129.444,217.236 		"/>
		<polygon fill="#FFFFFF" points="144.612,227.311 157.131,227.311 157.508,217.236 145.046,217.236 		"/>
		<polygon fill="#FFFFFF" points="160.823,227.311 173.342,227.311 173.618,217.236 161.17,217.236 		"/>
		<polygon fill="#FFFFFF" points="176.542,227.311 189.077,227.311 189.234,217.236 176.79,217.236 		"/>
		<polygon fill="#FFFFFF" points="160.33,241.277 172.968,241.277 173.244,231.205 160.676,231.205 		"/>
		<polygon fill="#FFFFFF" points="176.193,241.277 188.831,241.277 189.005,231.205 176.441,231.205 		"/>
		<polygon fill="#FFFFFF" points="159.433,268.738 172.287,268.738 172.563,258.664 159.78,258.664 		"/>
		<polygon fill="#FFFFFF" points="175.847,255.145 188.599,255.145 188.76,245.072 176.095,245.072 		"/>
		<polygon fill="#FFFFFF" points="128.109,241.277 156.221,241.277 156.596,231.205 128.662,231.205 		"/>
		<polygon fill="#FFFFFF" points="192.406,227.311 204.926,227.311 204.999,217.236 192.551,217.236 		"/>
		<polygon fill="#FFFFFF" points="208.124,227.311 220.646,227.311 220.616,217.236 208.17,217.236 		"/>
		<polygon fill="#FFFFFF" points="224.336,227.311 236.871,227.311 236.725,217.236 224.279,217.236 		"/>
		<polygon fill="#FFFFFF" points="240.056,227.311 252.592,227.311 252.356,217.236 239.896,217.236 		"/>
		<polygon fill="#FFFFFF" points="224.407,241.277 237.046,241.277 236.913,231.205 224.352,231.205 		"/>
		<polygon fill="#FFFFFF" points="240.273,241.277 252.91,241.277 252.679,231.205 240.111,231.205 		"/>
		<polygon fill="#FFFFFF" points="192.19,241.277 204.825,241.277 204.897,231.205 192.349,231.205 		"/>
		<polygon fill="#FFFFFF" points="208.053,241.277 220.69,241.277 220.659,231.205 208.097,231.205 		"/>
		<polygon fill="#FFFFFF" points="256.021,227.311 268.555,227.311 268.221,217.236 255.773,217.236 		"/>
		<polygon fill="#FFFFFF" points="272.245,227.311 284.768,227.311 284.318,217.236 271.87,217.236 		"/>
		<polygon fill="#FFFFFF" points="287.966,227.311 300.5,227.311 299.949,217.236 287.503,217.236 		"/>
		<polygon fill="#FFFFFF" points="272.737,241.277 285.39,241.277 284.94,231.205 272.376,231.205 		"/>
		<polygon fill="#FFFFFF" points="288.601,241.277 301.253,241.277 300.702,231.205 288.139,231.205 		"/>
		<polygon fill="#FFFFFF" points="256.385,241.277 269.034,241.277 268.686,231.205 256.121,231.205 		"/>
		<polygon fill="#FFFFFF" points="224.611,255.145 237.362,255.145 237.217,245.072 224.553,245.072 		"/>
		<polygon fill="#FFFFFF" points="240.606,255.145 253.373,255.145 253.125,245.072 240.461,245.072 		"/>
		<polygon fill="#FFFFFF" points="192.117,255.145 204.854,255.145 204.926,245.072 192.261,245.072 		"/>
		<polygon fill="#FFFFFF" points="208.11,255.145 220.861,255.145 220.834,245.072 208.152,245.072 		"/>
		<polygon fill="#FFFFFF" points="256.86,255.145 269.61,255.145 269.278,245.072 256.613,245.072 		"/>
		<polygon fill="#FFFFFF" points="257.525,268.738 270.393,268.738 270.047,258.664 257.265,258.664 		"/>
		<polygon fill="#FFFFFF" points="273.665,268.738 286.517,268.738 286.083,258.664 273.304,258.664 		"/>
		<polygon fill="#FFFFFF" points="290.051,268.738 302.917,268.738 302.366,258.664 289.588,258.664 		"/>
		<polygon fill="#FFFFFF" points="142.789,268.738 155.642,268.738 156.017,258.664 143.251,258.664 		"/>
		<polygon fill="#FFFFFF" points="126.665,268.738 139.518,268.738 139.98,258.664 127.213,258.664 		"/>
		<polygon fill="#FFFFFF" points="127.346,255.145 172.604,255.145 172.866,245.072 127.895,245.072 		"/>
		<polygon fill="#FFFFFF" points="273.232,255.145 302.005,255.145 301.454,245.072 272.884,245.072 		"/>
		<polygon fill="#FFFFFF" points="175.558,268.738 253.748,268.738 253.516,258.664 175.818,258.664 		"/>
		<polygon fill="#F2F2F2" points="128.835,228.052 141.37,228.052 141.848,217.989 129.384,217.989 		"/>
		<polygon fill="#F2F2F2" points="144.569,228.052 157.103,228.052 157.48,217.989 145.017,217.989 		"/>
		<polygon fill="#F2F2F2" points="160.794,228.052 173.328,228.052 173.589,217.989 161.14,217.989 		"/>
		<polygon fill="#F2F2F2" points="176.513,228.052 189.047,228.052 189.222,217.989 176.774,217.989 		"/>
		<polygon fill="#F2F2F2" points="160.3,242.015 172.952,242.015 173.213,231.941 160.647,231.941 		"/>
		<polygon fill="#F2F2F2" points="176.166,242.015 188.816,242.015 188.99,231.941 176.425,231.941 		"/>
		<polygon fill="#F2F2F2" points="159.404,269.478 172.273,269.478 172.547,259.401 159.751,259.401 		"/>
		<polygon fill="#F2F2F2" points="175.818,255.884 188.585,255.884 188.76,245.824 176.079,245.824 		"/>
		<polygon fill="#F2F2F2" points="128.067,242.015 156.19,242.015 156.568,231.941 128.631,231.941 		"/>
		<polygon fill="#F2F2F2" points="192.378,228.052 204.911,228.052 204.999,217.989 192.538,217.989 		"/>
		<polygon fill="#F2F2F2" points="208.124,228.052 220.659,228.052 220.616,217.989 208.152,217.989 		"/>
		<polygon fill="#F2F2F2" points="224.336,228.052 236.871,228.052 236.725,217.989 224.279,217.989 		"/>
		<polygon fill="#F2F2F2" points="240.07,228.052 252.604,228.052 252.356,217.989 239.912,217.989 		"/>
		<polygon fill="#F2F2F2" points="224.424,242.015 237.059,242.015 236.93,231.941 224.365,231.941 		"/>
		<polygon fill="#F2F2F2" points="240.287,242.015 252.937,242.015 252.691,231.941 240.127,231.941 		"/>
		<polygon fill="#F2F2F2" points="192.173,242.015 204.825,242.015 204.897,231.941 192.318,231.941 		"/>
		<polygon fill="#F2F2F2" points="208.038,242.015 220.69,242.015 220.659,231.941 208.097,231.941 		"/>
		<polygon fill="#F2F2F2" points="256.036,228.052 268.569,228.052 268.236,217.989 255.773,217.989 		"/>
		<polygon fill="#F2F2F2" points="272.262,228.052 284.795,228.052 284.348,217.989 271.899,217.989 		"/>
		<polygon fill="#F2F2F2" points="287.992,228.052 300.529,228.052 299.98,217.989 287.53,217.989 		"/>
		<polygon fill="#999999" points="129.602,214.169 142.035,214.169 142.266,209.263 129.878,209.263 		"/>
		<polygon fill="#999999" points="145.19,214.169 157.61,214.169 157.813,209.263 145.422,209.263 		"/>
		<polygon fill="#999999" points="161.273,214.169 173.706,214.169 173.822,209.263 161.447,209.263 		"/>
		<polygon fill="#999999" points="176.86,214.169 189.278,214.169 189.365,209.263 176.976,209.263 		"/>
		<polygon fill="#999999" points="192.594,214.169 205.015,214.169 205.058,209.263 192.666,209.263 		"/>
		<polygon fill="#999999" points="208.183,214.169 220.604,214.169 220.588,209.263 208.211,209.263 		"/>
		<polygon fill="#999999" points="224.248,214.169 236.682,214.169 236.609,209.263 224.219,209.263 		"/>
		<polygon fill="#999999" points="239.852,214.169 252.271,214.169 252.157,209.263 239.766,209.263 		"/>
		<polygon fill="#999999" points="255.688,214.169 268.109,214.169 267.946,209.263 255.558,209.263 		"/>
		<polygon fill="#999999" points="271.754,214.169 284.186,214.169 283.969,209.263 271.579,209.263 		"/>
		<polygon fill="#999999" points="287.357,214.169 299.776,214.169 299.516,209.263 287.125,209.263 		"/>
		<polygon fill="#FFFFFF" points="129.643,213.286 142.065,213.286 142.295,208.393 129.92,208.393 		"/>
		<polygon fill="#FFFFFF" points="145.234,213.286 157.653,213.286 157.842,208.393 145.453,208.393 		"/>
		<polygon fill="#FFFFFF" points="161.299,213.286 173.718,213.286 173.849,208.393 161.474,208.393 		"/>
		<polygon fill="#FFFFFF" points="176.89,213.286 189.309,213.286 189.395,208.393 177.005,208.393 		"/>
		<polygon fill="#FFFFFF" points="192.608,213.286 205.026,213.286 205.058,208.393 192.666,208.393 		"/>
		<polygon fill="#FFFFFF" points="208.183,213.286 220.604,213.286 220.588,208.393 208.211,208.393 		"/>
		<polygon fill="#FFFFFF" points="224.248,213.286 236.671,213.286 236.609,208.393 224.219,208.393 		"/>
		<polygon fill="#FFFFFF" points="239.838,213.286 252.258,213.286 252.143,208.393 239.766,208.393 		"/>
		<polygon fill="#FFFFFF" points="255.658,213.286 268.079,213.286 267.918,208.393 255.545,208.393 		"/>
		<polygon fill="#FFFFFF" points="271.725,213.286 284.144,213.286 283.942,208.393 271.552,208.393 		"/>
		<polygon fill="#FFFFFF" points="287.313,213.286 299.732,213.286 299.472,208.393 287.096,208.393 		"/>
		<polygon fill="#F2F2F2" points="129.632,213.648 142.065,213.648 142.282,208.756 129.905,208.756 		"/>
		<polygon fill="#F2F2F2" points="145.22,213.648 157.639,213.648 157.813,208.756 145.437,208.756 		"/>
		<polygon fill="#F2F2F2" points="161.286,213.648 173.706,213.648 173.849,208.756 161.46,208.756 		"/>
		<polygon fill="#F2F2F2" points="176.875,213.648 189.309,213.648 189.382,208.756 177.005,208.756 		"/>
		<polygon fill="#F2F2F2" points="192.608,213.648 205.026,213.648 205.058,208.756 192.666,208.756 		"/>
		<polygon fill="#F2F2F2" points="208.183,213.648 220.604,213.648 220.588,208.756 208.211,208.756 		"/>
		<polygon fill="#F2F2F2" points="224.248,213.648 236.671,213.648 236.609,208.756 224.219,208.756 		"/>
		<polygon fill="#F2F2F2" points="239.852,213.648 252.271,213.648 252.157,208.756 239.766,208.756 		"/>
		<polygon fill="#F2F2F2" points="255.672,213.648 268.093,213.648 267.933,208.756 255.545,208.756 		"/>
		<polygon fill="#F2F2F2" points="271.754,213.648 284.177,213.648 283.942,208.756 271.566,208.756 		"/>
		<polygon fill="#F2F2F2" points="287.331,213.648 299.748,213.648 299.487,208.756 287.096,208.756 		"/>
		<polygon fill="#F2F2F2" points="272.767,242.015 285.419,242.015 284.967,231.941 272.408,231.941 		"/>
		<polygon fill="#F2F2F2" points="288.63,242.015 301.281,242.015 300.73,231.941 288.167,231.941 		"/>
		<polygon fill="#F2F2F2" points="256.411,242.015 269.047,242.015 268.715,231.941 256.15,231.941 		"/>
		<polygon fill="#F2F2F2" points="224.611,255.884 237.362,255.884 237.232,245.824 224.565,245.824 		"/>
		<polygon fill="#F2F2F2" points="240.633,255.884 253.386,255.884 253.141,245.824 240.461,245.824 		"/>
		<polygon fill="#F2F2F2" points="192.087,255.884 204.854,255.884 204.926,245.824 192.245,245.824 		"/>
		<polygon fill="#F2F2F2" points="208.11,255.884 220.861,255.884 220.834,245.824 208.152,245.824 		"/>
		<polygon fill="#F2F2F2" points="256.873,255.884 269.641,255.884 269.292,245.824 256.613,245.824 		"/>
		<polygon fill="#F2F2F2" points="257.541,269.478 270.422,269.478 270.074,259.401 257.28,259.401 		"/>
		<polygon fill="#F2F2F2" points="273.694,269.478 286.561,269.478 286.113,259.401 273.317,259.401 		"/>
		<polygon fill="#F2F2F2" points="290.077,269.478 302.961,269.478 302.412,259.401 289.617,259.401 		"/>
		<polygon fill="#F2F2F2" points="142.759,269.478 155.627,269.478 156.002,259.401 143.222,259.401 		"/>
		<polygon fill="#F2F2F2" points="126.607,269.478 139.487,269.478 139.952,259.401 127.171,259.401 		"/>
		<polygon fill="#F2F2F2" points="127.302,255.884 172.576,255.884 172.837,245.824 127.851,245.824 		"/>
		<polygon fill="#F2F2F2" points="273.261,255.884 302.034,255.884 301.485,245.824 272.912,245.824 		"/>
		<polygon fill="#F2F2F2" points="175.558,269.478 253.776,269.478 253.531,259.401 175.804,259.401 		"/>
		<polygon fill="#CCCCCC" points="241.547,298.134 187.109,298.134 187.513,274.802 241.186,274.802 		"/>
		<path fill="#E6E6E6" d="M141.703,198.61h-20.684c-0.579,0-1.071,0.389-1.102,0.868l-0.289,4.428
			c-0.027,0.478,0.435,0.87,1.014,0.87h20.757c0.606,0,1.1-0.393,1.115-0.87l0.217-4.428
			C142.746,198.999,142.295,198.61,141.703,198.61z"/>
		<g>
			<path fill="#E6E6E6" d="M312.964,198.61h-20.685c-0.58,0-1.043,0.389-1.014,0.868l0.217,4.428c0.014,0.478,0.52,0.87,1.115,0.87
				h20.756c0.578,0,1.04-0.393,1.014-0.87l-0.292-4.428C314.049,198.999,313.558,198.61,312.964,198.61z"/>
		</g>
		<path fill="#FFFFFF" d="M141.703,198.61h-20.684c-0.579,0-1.071,0.389-1.102,0.868l-0.144,2.214h22.841l0.117-2.214
			C142.746,198.999,142.295,198.61,141.703,198.61z"/>
		<path fill="#FFFFFF" d="M312.964,198.61h-20.685c-0.58,0-1.043,0.389-1.014,0.868l0.115,2.214h22.84l-0.146-2.214
			C314.049,198.999,313.558,198.61,312.964,198.61z"/>
		<rect x="118.229" y="77.617" fill="#677383" width="195.248" height="111.813"/>
		<g>
			<rect x="131.075" y="88.272" fill="#F2F2F2" width="44.875" height="1.332"/>
			<rect x="179.833" y="88.272" fill="#FDBDB0" width="22.787" height="1.332"/>
			<rect x="194.458" y="115.041" fill="#FBE799" width="22.797" height="1.332"/>
			<rect x="197.049" y="110.764" fill="#CCCCCC" width="38.376" height="1.332"/>
			<rect x="197.049" y="123.617" fill="#F2F2F2" width="38.376" height="1.321"/>
			<rect x="219.932" y="154.307" fill="#FBE799" width="22.799" height="1.334"/>
			<rect x="178.317" y="154.307" fill="#FDBDB0" width="23.521" height="1.334"/>
			<rect x="131.075" y="92.561" fill="#FBE799" width="44.875" height="1.332"/>
			<rect x="213.934" y="96.911" fill="#CCCCCC" width="44.885" height="1.318"/>
			<rect x="131.075" y="96.911" fill="#F2F2F2" width="79.447" height="1.318"/>
			<rect x="183.732" y="105.426" fill="#F2F2F2" width="79.451" height="1.332"/>
			<rect x="131.075" y="101.124" fill="#CCCCCC" width="51.678" height="1.332"/>
			<rect x="131.075" y="105.426" fill="#CCCCCC" width="44.875" height="1.332"/>
			<rect x="131.454" y="160.308" fill="#CCCCCC" width="44.875" height="1.331"/>
			<rect x="180.212" y="160.308" fill="#CCCCCC" width="22.787" height="1.331"/>
			<rect x="131.454" y="164.596" fill="#F2F2F2" width="18.874" height="1.317"/>
			<rect x="214.312" y="168.932" fill="#CCCCCC" width="44.887" height="1.332"/>
			<rect x="131.454" y="168.932" fill="#FDBDB0" width="51.813" height="1.332"/>
			<rect x="184.109" y="177.46" fill="#F2F2F2" width="79.452" height="1.321"/>
			<rect x="131.454" y="173.158" fill="#F2F2F2" width="79.449" height="1.333"/>
			<rect x="131.454" y="177.46" fill="#FBE799" width="44.875" height="1.321"/>
			<rect x="131.075" y="137.155" fill="#FDBDB0" width="29.565" height="1.331"/>
			<rect x="131.075" y="141.443" fill="#F2F2F2" width="79.034" height="1.32"/>
			<rect x="131.075" y="145.78" fill="#CCCCCC" width="44.875" height="1.332"/>
			<rect x="178.575" y="145.78" fill="#F2F2F2" width="44.888" height="1.332"/>
			<rect x="131.075" y="150.007" fill="#F2F2F2" width="22.465" height="1.33"/>
			<rect x="131.075" y="154.307" fill="#F2F2F2" width="26.963" height="1.334"/>
			<rect x="146.749" y="110.764" fill="#CCCCCC" width="44.875" height="1.332"/>
			<rect x="146.749" y="115.041" fill="#CCCCCC" width="44.875" height="1.332"/>
			<rect x="146.749" y="119.389" fill="#FDBDB0" width="23.812" height="1.331"/>
			<rect x="146.749" y="123.617" fill="#CCCCCC" width="44.875" height="1.321"/>
			<rect x="146.749" y="127.918" fill="#F2F2F2" width="44.875" height="1.318"/>
			<rect x="240.849" y="108.626" fill="#CCCCCC" width="25.741" height="1.502"/>
		</g>
	</g>
</g>
<g id="ablakok">
	<g>
		<rect x="227.61" y="46.161" fill="#FFFFFF" width="127.861" height="123.143"/>
		<polygon fill="#8D96A2" points="355.472,34.297 227.61,34.297 227.61,34.297 227.61,46.177 355.472,46.177 		"/>
		<rect x="232.693" y="55.769" fill="#F2F2F2" width="29.858" height="1.529"/>
		<rect x="265.126" y="55.769" fill="#FDBDB0" width="15.17" height="1.529"/>
		<rect x="274.851" y="86.515" fill="#FBE799" width="15.169" height="1.529"/>
		<rect x="304.271" y="96.356" fill="#CCCCCC" width="15.154" height="1.529"/>
		<rect x="276.585" y="81.593" fill="#CCCCCC" width="25.533" height="1.531"/>
		<rect x="276.585" y="96.356" fill="#F2F2F2" width="25.533" height="1.529"/>
		<rect x="291.813" y="131.599" fill="#FBE799" width="15.152" height="1.529"/>
		<rect x="264.121" y="131.599" fill="#FDBDB0" width="15.65" height="1.529"/>
		<rect x="232.693" y="60.69" fill="#FBE799" width="29.858" height="1.529"/>
		<rect x="287.822" y="65.684" fill="#CCCCCC" width="29.857" height="1.528"/>
		<rect x="232.693" y="65.684" fill="#F2F2F2" width="52.858" height="1.528"/>
		<rect x="267.717" y="75.466" fill="#F2F2F2" width="52.858" height="1.528"/>
		<rect x="232.693" y="70.532" fill="#CCCCCC" width="34.385" height="1.529"/>
		<rect x="232.693" y="75.466" fill="#CCCCCC" width="29.858" height="1.528"/>
		<rect x="232.94" y="138.5" fill="#CCCCCC" width="29.856" height="1.529"/>
		<rect x="265.375" y="138.5" fill="#CCCCCC" width="15.166" height="1.529"/>
		<rect x="232.94" y="143.419" fill="#F2F2F2" width="12.563" height="1.529"/>
		<rect x="288.067" y="148.414" fill="#CCCCCC" width="29.86" height="1.514"/>
		<rect x="232.94" y="148.414" fill="#FDBDB0" width="34.472" height="1.514"/>
		<rect x="267.98" y="158.197" fill="#F2F2F2" width="52.845" height="1.529"/>
		<rect x="232.94" y="153.261" fill="#F2F2F2" width="52.856" height="1.516"/>
		<rect x="232.94" y="158.197" fill="#FBE799" width="29.856" height="1.529"/>
		<rect x="232.693" y="111.903" fill="#FDBDB0" width="19.666" height="1.529"/>
		<rect x="232.693" y="116.824" fill="#F2F2F2" width="52.581" height="1.529"/>
		<rect x="232.693" y="121.817" fill="#CCCCCC" width="29.858" height="1.528"/>
		<rect x="264.297" y="121.817" fill="#F2F2F2" width="29.856" height="1.528"/>
		<rect x="232.693" y="126.666" fill="#F2F2F2" width="14.951" height="1.528"/>
		<rect x="232.693" y="131.599" fill="#F2F2F2" width="17.934" height="1.529"/>
		<rect x="243.115" y="81.593" fill="#CCCCCC" width="29.857" height="1.531"/>
		<rect x="243.115" y="86.515" fill="#CCCCCC" width="29.857" height="1.529"/>
		<rect x="243.115" y="91.509" fill="#FDBDB0" width="15.854" height="1.527"/>
		<rect x="243.115" y="96.356" fill="#CCCCCC" width="29.857" height="1.529"/>
		<rect x="243.115" y="101.291" fill="#F2F2F2" width="29.857" height="1.528"/>
	</g>
	<g>
		<rect x="251.412" y="67.161" fill="#415064" width="132.75" height="66.047"/>
		<polygon fill="#8D96A2" points="384.162,60.785 251.412,60.785 251.412,60.785 251.412,67.161 384.162,67.161 		"/>
		<rect x="363.981" y="88.617" fill="#CCCCCC" width="8.11" height="0.977"/>
		<rect x="322.686" y="88.617" fill="#677383" width="37.615" height="0.977"/>
		<rect x="347.344" y="107.529" fill="#F5C400" width="22.347" height="0.96"/>
		<rect x="306.54" y="107.529" fill="#FA593A" width="23.06" height="0.96"/>
		<rect x="345.394" y="78.471" fill="#CCCCCC" width="26.408" height="0.991"/>
		<rect x="260.219" y="78.516" fill="#677383" width="77.898" height="0.96"/>
		<rect x="311.854" y="84.746" fill="#677383" width="63.428" height="0.961"/>
		<rect x="260.219" y="81.602" fill="#CCCCCC" width="50.674" height="0.974"/>
		<rect x="260.219" y="84.746" fill="#CCCCCC" width="44.006" height="0.961"/>
		<rect x="308.388" y="111.91" fill="#CCCCCC" width="22.347" height="0.977"/>
		<rect x="336.266" y="121.533" fill="#CCCCCC" width="35.842" height="0.976"/>
		<rect x="312.146" y="127.765" fill="#677383" width="63.438" height="0.974"/>
		<rect x="260.596" y="124.62" fill="#677383" width="77.883" height="0.975"/>
		<rect x="260.596" y="127.765" fill="#F5C400" width="43.994" height="0.974"/>
		<rect x="260.219" y="104.384" fill="#677383" width="22.024" height="0.961"/>
		<rect x="260.219" y="107.529" fill="#677383" width="26.435" height="0.96"/>
		<rect x="273.363" y="88.617" fill="#CCCCCC" width="44.009" height="0.977"/>
		<rect x="273.363" y="91.763" fill="#677383" width="44.009" height="0.974"/>
		<g>
			<path fill="#415064" d="M260.596,75.705v-3.535h0.438v3.535H260.596z"/>
			<path fill="#415064" d="M261.862,75.705v-3.535h2.332v0.392H262.3v1.135h1.849v0.393H262.3v1.615H261.862z"/>
		</g>
		<path fill="#415064" d="M269.811,76.244c-0.334,0-0.669-0.275-0.669-0.712V74.44c0-0.205-0.088-0.364-0.273-0.364v-0.278
			c0.186,0,0.273-0.16,0.273-0.363v-1.092c0-0.438,0.335-0.712,0.669-0.712h0.321v0.292h-0.321c-0.201,0-0.364,0.174-0.364,0.421
			v1.121c0,0.233-0.055,0.395-0.233,0.482c0.179,0.071,0.233,0.232,0.233,0.464v1.122c0,0.248,0.163,0.422,0.364,0.422h0.321v0.29
			H269.811z"/>
		<path fill="#415064" d="M303.368,75.954h0.316c0.19,0,0.35-0.174,0.35-0.422V74.41c0-0.232,0.073-0.394,0.248-0.464
			c-0.175-0.087-0.248-0.249-0.248-0.482v-1.121c0-0.247-0.159-0.421-0.35-0.421h-0.316V71.63h0.316
			c0.337,0,0.673,0.275,0.673,0.712v1.092c0,0.204,0.087,0.363,0.274,0.363v0.278c-0.188,0-0.274,0.159-0.274,0.364v1.092
			c0,0.437-0.336,0.712-0.673,0.712h-0.316V75.954z"/>
		<path fill="#415064" d="M338.071,114.706c-0.337,0-0.671-0.277-0.671-0.715v-1.091c0-0.204-0.086-0.363-0.274-0.363v-0.262
			c0.188,0,0.274-0.175,0.274-0.378v-1.092c0-0.437,0.334-0.712,0.671-0.712h0.32v0.291h-0.32c-0.188,0-0.363,0.175-0.363,0.422
			v1.12c0,0.234-0.058,0.41-0.234,0.482c0.177,0.072,0.234,0.247,0.234,0.466v1.119c0,0.25,0.175,0.425,0.363,0.425h0.32v0.29
			H338.071z"/>
		<path fill="#415064" d="M350.212,114.416h0.334c0.19,0,0.35-0.175,0.35-0.425v-1.119c0-0.219,0.075-0.394,0.248-0.466
			c-0.173-0.072-0.248-0.248-0.248-0.482v-1.12c0-0.247-0.159-0.422-0.35-0.422h-0.334v-0.291h0.334
			c0.336,0,0.655,0.275,0.655,0.712v1.092c0,0.203,0.088,0.378,0.276,0.378v0.262c-0.188,0-0.276,0.16-0.276,0.363v1.091
			c0,0.438-0.319,0.715-0.655,0.715h-0.334V114.416z"/>
		<g>
			<path fill="#415064" d="M259.985,120.82v-3.553h2.331v0.395h-1.894v1.15h1.848v0.394h-1.848v1.221h1.894v0.394H259.985z"/>
			<path fill="#415064" d="M263.013,120.82v-3.553h0.436v3.159h1.646v0.394H263.013z"/>
			<path fill="#415064" d="M265.503,120.31l0.26-0.335c0.235,0.263,0.612,0.51,1.121,0.51c0.628,0,0.831-0.335,0.831-0.612
				c0-0.918-2.108-0.407-2.108-1.674c0-0.582,0.522-0.989,1.22-0.989c0.555,0,0.963,0.188,1.269,0.495l-0.263,0.334
				c-0.276-0.291-0.641-0.422-1.035-0.422c-0.422,0-0.725,0.217-0.725,0.553c0,0.801,2.094,0.335,2.094,1.675
				c0,0.508-0.347,1.034-1.309,1.034C266.247,120.879,265.795,120.646,265.503,120.31z"/>
			<path fill="#415064" d="M268.822,120.82v-3.553h2.329v0.395h-1.877v1.15h1.832v0.394h-1.832v1.221h1.877v0.394H268.822z"/>
		</g>
		<path fill="#415064" d="M274.732,121.358c-0.335,0-0.669-0.276-0.669-0.712v-1.092c0-0.204-0.089-0.379-0.277-0.379v-0.261
			c0.188,0,0.277-0.176,0.277-0.364v-1.093c0-0.435,0.334-0.711,0.669-0.711h0.318v0.291h-0.318c-0.191,0-0.349,0.175-0.349,0.421
			v1.122c0,0.234-0.074,0.394-0.247,0.467c0.173,0.073,0.247,0.248,0.247,0.479v1.106c0,0.249,0.157,0.437,0.349,0.437h0.318v0.292
			H274.732z"/>
		<path fill="#415064" d="M306.845,121.066h0.321c0.19,0,0.35-0.188,0.35-0.437v-1.106c0-0.232,0.073-0.406,0.246-0.479
			c-0.173-0.073-0.246-0.232-0.246-0.467v-1.122c0-0.246-0.159-0.421-0.35-0.421h-0.321v-0.291h0.321
			c0.334,0,0.671,0.276,0.671,0.711v1.093c0,0.188,0.086,0.364,0.276,0.364v0.261c-0.19,0-0.276,0.176-0.276,0.379v1.092
			c0,0.436-0.337,0.712-0.671,0.712h-0.321V121.066z"/>
		<g>
			<path fill="#415064" d="M274.049,101.342V97.79h2.313v0.394h-1.878v1.149h1.85v0.394h-1.85v1.223h1.878v0.394H274.049z"/>
			<path fill="#415064" d="M277.061,101.342V97.79h0.436v3.159h1.662v0.394H277.061z"/>
			<path fill="#415064" d="M279.565,100.846l0.248-0.333c0.245,0.261,0.626,0.495,1.119,0.495c0.64,0,0.846-0.335,0.846-0.612
				c0-0.917-2.111-0.407-2.111-1.673c0-0.581,0.524-0.99,1.224-0.99c0.538,0,0.961,0.188,1.264,0.494l-0.274,0.334
				c-0.264-0.289-0.642-0.419-1.018-0.419c-0.423,0-0.73,0.217-0.73,0.552c0,0.8,2.098,0.349,2.098,1.675
				c0,0.508-0.35,1.033-1.31,1.033C280.309,101.4,279.857,101.167,279.565,100.846z"/>
			<path fill="#415064" d="M282.883,101.342V97.79h2.332v0.394h-1.895v1.149h1.849v0.394h-1.849v1.223h1.895v0.394H282.883z"/>
			<path fill="#415064" d="M287.28,101.342V97.79h0.438v3.553H287.28z"/>
			<path fill="#415064" d="M288.548,101.342V97.79h2.328v0.394h-1.893v1.149h1.851v0.394h-1.851v1.616H288.548z"/>
		</g>
		<path fill="#415064" d="M303.322,101.922c-0.479-0.653-0.755-1.498-0.755-2.357c0-0.858,0.276-1.689,0.755-2.344l0.248,0.174
			c-0.35,0.686-0.567,1.283-0.567,2.17c0,0.888,0.218,1.5,0.567,2.17L303.322,101.922z"/>
		<path fill="#415064" d="M330.182,101.735c0.348-0.67,0.566-1.282,0.566-2.17c0-0.887-0.219-1.484-0.566-2.17l0.25-0.174
			c0.478,0.655,0.755,1.485,0.755,2.344c0,0.859-0.277,1.704-0.755,2.357L330.182,101.735z"/>
	</g>
</g>
<g id="belepes" display="none">
	<g display="inline">
		<g>
			<defs>
				<rect id="SVGID_1_" x="85.596" y="51.735" width="51.964" height="66.317"/>
			</defs>
			<use xlink:href="#SVGID_1_"  overflow="visible" fill="#FFFFFF"/>
			<clipPath id="SVGID_2_">
				<use xlink:href="#SVGID_1_"  overflow="visible"/>
			</clipPath>
		</g>
		<rect x="85.596" y="51.735" fill="#FA6B3A" width="51.964" height="66.317"/>
		<g>
			<rect x="85.596" y="51.735" fill="#FFFFFF" width="51.964" height="7.697"/>
			<rect x="85.596" y="59.432" fill="#FFFFFF" width="51.964" height="7.71"/>
		</g>
		<rect x="98.683" y="82.662" opacity="0.75" fill="#FFFFFF" width="26.218" height="4.541"/>
		<path opacity="0.9" fill="#FFFFFF" d="M124.96,87.259H98.615v-4.652h26.345V87.259z M98.729,87.146h26.105V82.72H98.729V87.146z"
			/>
		<rect x="98.592" y="89.705" opacity="0.75" fill="#FFFFFF" width="26.309" height="4.55"/>
		<path opacity="0.5" fill="#FFFFFF" d="M119.016,107.625h-14.537v-4.347h14.537V107.625z M104.512,107.547h14.458v-4.19h-14.458
			V107.547z"/>
		<path opacity="0.9" fill="#FFFFFF" d="M124.96,94.312H98.535v-4.664h26.426V94.312z M98.66,94.2h26.175v-4.438H98.66V94.2z"/>
		<g opacity="0.9">
			<path fill="#FFFFFF" d="M106.198,77.026c0,0.939-0.27,1.38-0.949,1.38s-0.951-0.44-0.951-1.38v-1.325h0.158v1.325
				c0,0.849,0.204,1.245,0.792,1.245s0.793-0.396,0.793-1.245v-1.325h0.156V77.026z"/>
			<path fill="#FFFFFF" d="M107.31,78.271c0.25,0,0.476-0.102,0.476-0.419c0-0.272-0.238-0.327-0.522-0.407
				c-0.314-0.09-0.564-0.193-0.564-0.565c0-0.363,0.283-0.499,0.588-0.499c0.182,0,0.361,0.012,0.543,0.102l-0.07,0.125
				c-0.135-0.068-0.292-0.091-0.474-0.091c-0.25,0-0.454,0.08-0.454,0.374c0,0.249,0.18,0.328,0.487,0.408
				c0.328,0.102,0.623,0.181,0.623,0.554c0,0.408-0.295,0.554-0.634,0.554c-0.25,0-0.498-0.045-0.682-0.18l0.06-0.126
				C106.857,78.214,107.073,78.271,107.31,78.271z"/>
			<path fill="#FFFFFF" d="M109.731,78.26c-0.179,0.101-0.384,0.146-0.634,0.146c-0.43,0-0.792-0.18-0.792-1.006
				c0-0.896,0.407-1.02,0.769-1.02c0.454,0,0.748,0.25,0.748,1.008v0.021l-1.369,0.103c0.023,0.635,0.305,0.759,0.657,0.759
				c0.214,0,0.384-0.044,0.578-0.147L109.731,78.26z M109.664,77.285c-0.011-0.587-0.237-0.77-0.59-0.77
				c-0.315,0-0.621,0.126-0.621,0.827v0.034L109.664,77.285z"/>
			<path fill="#FFFFFF" d="M110.288,78.361v-1.438c0-0.17-0.011-0.339-0.058-0.497l0.136-0.023c0.033,0.101,0.054,0.272,0.066,0.396
				c0.113-0.238,0.295-0.387,0.591-0.419l0.023,0.17c-0.319,0.011-0.455,0.182-0.614,0.464v1.347H110.288z"/>
			<path fill="#FFFFFF" d="M112.189,78.361v-2.66h0.16v2.513h1.323v0.147H112.189z"/>
			<path fill="#FFFFFF" d="M113.932,77.388c0-0.69,0.237-1.008,0.816-1.008c0.577,0,0.803,0.318,0.803,1.008
				c0,0.702-0.226,1.018-0.803,1.018C114.168,78.406,113.932,78.09,113.932,77.388z M115.403,77.388
				c0-0.522-0.114-0.873-0.656-0.873c-0.556,0-0.668,0.351-0.668,0.873c0,0.531,0.113,0.882,0.668,0.882
				C115.29,78.271,115.403,77.919,115.403,77.388z"/>
			<path fill="#FFFFFF" d="M116.774,78.858c0.385,0,0.52-0.236,0.52-0.564v-0.262c-0.135,0.25-0.317,0.374-0.657,0.374
				c-0.487,0-0.677-0.374-0.677-1.018c0-0.85,0.384-1.008,0.769-1.008c0.248,0,0.497,0.023,0.714,0.102v1.813
				c0,0.429-0.195,0.702-0.657,0.702c-0.195,0-0.374-0.036-0.542-0.103l0.056-0.137C116.446,78.825,116.615,78.858,116.774,78.858z
				 M117.294,76.596c-0.169-0.069-0.363-0.08-0.565-0.08c-0.339,0-0.625,0.136-0.625,0.873c0,0.555,0.139,0.882,0.558,0.882
				c0.338,0,0.474-0.17,0.633-0.463V76.596z"/>
			<path fill="#FFFFFF" d="M117.973,75.894c0-0.069,0.048-0.102,0.114-0.102c0.068,0,0.115,0.032,0.115,0.102
				c0,0.067-0.046,0.102-0.115,0.102C118.021,75.996,117.973,75.96,117.973,75.894z M118.087,78.361
				c-0.066-0.181-0.066-0.418-0.066-0.668v-1.244l0.147-0.023v1.267c0,0.239,0.011,0.488,0.054,0.668H118.087z"/>
			<path fill="#FFFFFF" d="M120.033,78.361v-1.052c0-0.464-0.067-0.793-0.508-0.793c-0.329,0-0.489,0.169-0.634,0.464v1.381h-0.147
				v-1.438c0-0.17-0.022-0.339-0.069-0.497l0.136-0.023c0.045,0.101,0.067,0.227,0.067,0.35c0.137-0.227,0.318-0.373,0.668-0.373
				c0.556,0,0.646,0.464,0.646,0.884v1.097H120.033z"/>
		</g>
		<polygon fill="#404040" points="103.348,84.146 101.762,85.415 100.178,84.146 100.178,84.146 100.178,85.945 103.348,85.945 		
			"/>
		<polygon fill="#415064" points="103.348,83.853 103.348,83.853 100.178,83.853 101.762,85.119 		"/>
		<path fill="#404040" d="M101.309,91.199c0-0.248,0.206-0.464,0.454-0.464c0.261,0,0.464,0.216,0.464,0.464v0.396h0.307v-0.407
			c0-0.419-0.339-0.758-0.771-0.758c-0.407,0-0.747,0.339-0.747,0.758v0.407h0.293V91.199z"/>
		<polygon fill="#415064" points="102.351,91.776 101.187,91.776 100.812,91.776 100.812,93.441 101.187,93.441 102.351,93.441 
			102.725,93.441 102.725,91.776 		"/>
		<g opacity="0.9">
			<path fill="#FFFFFF" d="M98.504,96.089v-0.735h0.384v0.045h-0.338v0.304h0.281l-0.011,0.035h-0.27v0.351H98.504z"/>
			<path fill="#FFFFFF" d="M98.92,95.818c0-0.182,0.059-0.271,0.216-0.271c0.17,0,0.228,0.089,0.228,0.271
				c0,0.194-0.057,0.283-0.228,0.283C98.979,96.101,98.92,96.012,98.92,95.818z M99.317,95.818c0-0.148-0.02-0.237-0.181-0.237
				c-0.135,0-0.168,0.089-0.168,0.237c0,0.147,0.033,0.238,0.168,0.238C99.297,96.056,99.317,95.965,99.317,95.818z"/>
			<path fill="#FFFFFF" d="M99.499,96.089v-0.397c0-0.044-0.011-0.089-0.022-0.134h0.044c0,0.022,0.012,0.067,0.012,0.102
				c0.033-0.067,0.079-0.102,0.169-0.113v0.046c-0.091,0-0.136,0.043-0.169,0.122v0.375H99.499z"/>
			<path fill="#FFFFFF" d="M99.997,96.227c0.09,0,0.135-0.07,0.135-0.16v-0.068c-0.044,0.068-0.091,0.103-0.18,0.103
				c-0.136,0-0.183-0.103-0.183-0.283c0-0.225,0.104-0.271,0.206-0.271c0.066,0,0.135,0.011,0.204,0.023v0.497
				c0,0.113-0.055,0.192-0.181,0.192c-0.057,0-0.113-0.01-0.158-0.033l0.022-0.035C99.906,96.213,99.951,96.227,99.997,96.227z
				 M100.131,95.604c-0.044-0.023-0.102-0.023-0.157-0.023c-0.09,0-0.159,0.033-0.159,0.237c0,0.158,0.023,0.238,0.136,0.238
				c0.089,0,0.136-0.044,0.18-0.125V95.604z"/>
			<path fill="#FFFFFF" d="M100.291,95.818c0-0.182,0.07-0.271,0.226-0.271c0.159,0,0.228,0.089,0.228,0.271
				c0,0.194-0.069,0.283-0.228,0.283C100.36,96.101,100.291,96.012,100.291,95.818z M100.699,95.818
				c0-0.148-0.023-0.237-0.183-0.237c-0.147,0-0.181,0.089-0.181,0.237c0,0.147,0.033,0.238,0.181,0.238
				C100.676,96.056,100.699,95.965,100.699,95.818z"/>
			<path fill="#FFFFFF" d="M100.992,96.101c-0.079-0.068-0.091-0.136-0.091-0.283v-0.225h-0.089v-0.035h0.089v-0.17h0.045v0.17
				h0.114v0.035h-0.114v0.248c0,0.101,0,0.171,0.069,0.226L100.992,96.101z"/>
			<path fill="#FFFFFF" d="M101.39,96.227c0.065-0.035,0.101-0.081,0.125-0.137l-0.184-0.531h0.046l0.159,0.486l0.157-0.486h0.034
				l-0.17,0.509c-0.021,0.089-0.067,0.16-0.156,0.192L101.39,96.227z"/>
			<path fill="#FFFFFF" d="M101.795,95.818c0-0.182,0.058-0.271,0.217-0.271c0.158,0,0.226,0.089,0.226,0.271
				c0,0.194-0.067,0.283-0.226,0.283C101.853,96.101,101.795,96.012,101.795,95.818z M102.194,95.818
				c0-0.148-0.023-0.237-0.181-0.237c-0.137,0-0.182,0.089-0.182,0.237c0,0.147,0.044,0.238,0.182,0.238
				C102.171,96.056,102.194,95.965,102.194,95.818z"/>
			<path fill="#FFFFFF" d="M102.736,96.089c-0.011-0.022-0.024-0.056-0.024-0.091c-0.031,0.058-0.089,0.103-0.179,0.103
				c-0.16,0-0.182-0.136-0.182-0.25v-0.293h0.046v0.283c0,0.135,0.022,0.215,0.135,0.215c0.09,0,0.135-0.044,0.179-0.125v-0.373
				h0.046v0.396c0,0.044,0,0.09,0.013,0.135H102.736z"/>
			<path fill="#FFFFFF" d="M102.896,96.089v-0.397c0-0.044,0-0.089-0.013-0.134h0.037c0.021,0.022,0.021,0.067,0.021,0.102
				c0.033-0.067,0.081-0.102,0.158-0.113l0.012,0.046c-0.08,0-0.124,0.043-0.17,0.122v0.375H102.896z"/>
			<path fill="#FFFFFF" d="M103.415,96.249v-0.557c0-0.044,0-0.089-0.009-0.134h0.032c0.012,0.022,0.023,0.056,0.023,0.09
				c0.034-0.068,0.078-0.102,0.18-0.102c0.136,0,0.183,0.102,0.183,0.271c0,0.238-0.102,0.283-0.205,0.283
				c-0.067,0-0.113-0.012-0.158-0.034v0.182H103.415z M103.619,96.056c0.092,0,0.158-0.034,0.158-0.238
				c0-0.148-0.023-0.237-0.147-0.237c-0.092,0-0.124,0.045-0.169,0.123v0.319C103.506,96.056,103.563,96.056,103.619,96.056z"/>
			<path fill="#FFFFFF" d="M104.298,96.089c0-0.022-0.012-0.056-0.012-0.091c-0.032,0.058-0.077,0.103-0.179,0.103
				c-0.138,0-0.17-0.068-0.17-0.159c0-0.124,0.102-0.147,0.34-0.158v-0.011c0-0.147-0.067-0.192-0.137-0.192
				c-0.066,0-0.113,0.012-0.156,0.033l-0.015-0.033c0.045-0.022,0.104-0.034,0.17-0.034c0.102,0,0.183,0.057,0.183,0.214v0.193
				c0,0.044,0,0.09,0.022,0.135H104.298z M104.276,95.818c-0.204,0.013-0.308,0.023-0.308,0.136c0,0.068,0.034,0.102,0.147,0.102
				c0.093,0,0.125-0.044,0.161-0.125V95.818z"/>
			<path fill="#FFFFFF" d="M104.627,96.056c0.066,0,0.124-0.023,0.124-0.114c0-0.068-0.067-0.091-0.135-0.111
				c-0.091-0.013-0.16-0.046-0.16-0.148c0-0.102,0.08-0.136,0.16-0.136c0.056,0,0.11,0,0.157,0.023l-0.022,0.034
				c-0.044-0.011-0.079-0.023-0.135-0.023c-0.069,0-0.114,0.023-0.114,0.102c0,0.066,0.045,0.09,0.135,0.112
				c0.089,0.023,0.159,0.046,0.159,0.147c0,0.114-0.08,0.159-0.169,0.159c-0.08,0-0.136-0.012-0.192-0.045l0.022-0.034
				C104.502,96.044,104.57,96.056,104.627,96.056z"/>
			<path fill="#FFFFFF" d="M105.07,96.056c0.066,0,0.133-0.023,0.133-0.114c0-0.068-0.066-0.091-0.146-0.111
				c-0.078-0.013-0.147-0.046-0.147-0.148c0-0.102,0.07-0.136,0.161-0.136c0.043,0,0.088,0,0.146,0.023l-0.013,0.034
				c-0.044-0.011-0.09-0.023-0.133-0.023c-0.07,0-0.126,0.023-0.126,0.102c0,0.066,0.056,0.09,0.126,0.112
				c0.088,0.023,0.179,0.046,0.179,0.147c0,0.114-0.091,0.159-0.179,0.159c-0.07,0-0.137-0.012-0.183-0.045l0.011-0.034
				C104.944,96.044,105,96.056,105.07,96.056z"/>
			<path fill="#FFFFFF" d="M105.793,96.089l-0.135-0.476l-0.148,0.476h-0.058l-0.157-0.531h0.044l0.148,0.486l0.146-0.486h0.046
				l0.135,0.486l0.147-0.486h0.034l-0.159,0.531H105.793z"/>
			<path fill="#FFFFFF" d="M106.065,95.818c0-0.182,0.068-0.271,0.224-0.271c0.159,0,0.217,0.089,0.217,0.271
				c0,0.194-0.058,0.283-0.217,0.283C106.133,96.101,106.065,96.012,106.065,95.818z M106.472,95.818
				c0-0.148-0.045-0.237-0.183-0.237c-0.156,0-0.179,0.089-0.179,0.237c0,0.147,0.023,0.238,0.179,0.238
				C106.426,96.056,106.472,95.965,106.472,95.818z"/>
			<path fill="#FFFFFF" d="M106.628,96.089v-0.397c0-0.044,0-0.089-0.009-0.134h0.033c0.014,0.022,0.024,0.067,0.024,0.102
				c0.022-0.067,0.08-0.102,0.157-0.113v0.046c-0.078,0-0.113,0.043-0.157,0.122v0.375H106.628z"/>
			<path fill="#FFFFFF" d="M107.287,96.089c0-0.022-0.011-0.056-0.011-0.101c-0.035,0.068-0.081,0.113-0.182,0.113
				c-0.135,0-0.192-0.103-0.192-0.283c0-0.225,0.111-0.271,0.216-0.271c0.056,0,0.102,0.011,0.145,0.034v-0.239h0.047v0.612
				c0,0.044,0,0.09,0.023,0.135H107.287z M107.263,95.625c-0.043-0.033-0.088-0.045-0.145-0.045c-0.091,0-0.169,0.033-0.169,0.237
				c0,0.158,0.043,0.238,0.157,0.238c0.089,0,0.124-0.044,0.157-0.125V95.625z"/>
			<path fill="#FFFFFF" d="M107.57,95.92c0-0.046,0-0.113-0.011-0.171c0.157-0.011,0.226-0.066,0.226-0.168
				c0-0.125-0.113-0.193-0.271-0.193c-0.023,0-0.034,0-0.045,0v-0.046c0.022,0,0.033,0,0.045,0c0.203,0,0.316,0.113,0.316,0.239
				c0,0.102-0.07,0.181-0.227,0.204c0,0.034,0,0.09,0,0.136H107.57z M107.56,96.056c0-0.023,0-0.034,0.022-0.034
				s0.044,0.011,0.044,0.034s-0.022,0.033-0.044,0.033S107.56,96.079,107.56,96.056z"/>
		</g>
		<g opacity="0.9">
			<path fill="#FFFFFF" d="M122.072,96.033c0.113,0,0.204-0.045,0.204-0.17c0-0.114-0.103-0.148-0.226-0.18
				c-0.115-0.034-0.226-0.079-0.226-0.205c0-0.157,0.11-0.204,0.237-0.204c0.079,0,0.146,0.012,0.214,0.047l-0.023,0.033
				c-0.067-0.033-0.123-0.046-0.191-0.046c-0.104,0-0.193,0.046-0.193,0.169c0,0.103,0.089,0.136,0.204,0.159
				c0.124,0.046,0.248,0.079,0.248,0.227c0,0.159-0.113,0.216-0.248,0.216c-0.101,0-0.204-0.023-0.272-0.067l0.024-0.047
				C121.89,96.012,121.982,96.033,122.072,96.033z"/>
			<path fill="#FFFFFF" d="M122.436,95.342c0-0.021,0.009-0.034,0.033-0.034c0.022,0,0.033,0.013,0.033,0.034
				c0,0.023-0.011,0.035-0.033,0.035C122.444,95.376,122.436,95.365,122.436,95.342z M122.458,96.067
				c0-0.055-0.013-0.125-0.013-0.204v-0.362h0.046v0.373c0,0.068,0.011,0.138,0.011,0.193H122.458z"/>
			<path fill="#FFFFFF" d="M122.876,96.213c0.114,0,0.147-0.067,0.147-0.169v-0.08c-0.033,0.08-0.092,0.114-0.183,0.114
				c-0.144,0-0.203-0.114-0.203-0.295c0-0.261,0.113-0.307,0.227-0.307c0.066,0,0.136,0.011,0.204,0.034v0.533
				c0,0.124-0.058,0.205-0.182,0.205c-0.066,0-0.112,0-0.17-0.022l0.011-0.047C122.775,96.202,122.831,96.213,122.876,96.213z
				 M123.023,95.547c-0.045-0.023-0.103-0.023-0.158-0.023c-0.102,0-0.182,0.046-0.182,0.261c0,0.158,0.033,0.249,0.157,0.249
				c0.091,0,0.137-0.045,0.183-0.136V95.547z"/>
			<path fill="#FFFFFF" d="M123.612,96.067v-0.306c0-0.147-0.021-0.238-0.159-0.238c-0.09,0-0.137,0.046-0.181,0.136v0.407h-0.045
				v-0.418c0-0.056,0-0.102-0.022-0.147l0.045-0.013c0.009,0.035,0.022,0.07,0.022,0.104c0.044-0.069,0.091-0.115,0.192-0.115
				c0.17,0,0.193,0.148,0.193,0.261v0.329H123.612z"/>
			<path fill="#FFFFFF" d="M124.427,96.067c-0.024-0.022-0.024-0.068-0.024-0.102c-0.044,0.068-0.088,0.114-0.202,0.114
				c-0.16,0-0.181-0.137-0.181-0.261v-0.317h0.044v0.306c0,0.135,0.022,0.226,0.148,0.226c0.102,0,0.146-0.045,0.19-0.136v-0.396
				h0.046v0.419c0,0.045,0,0.102,0.012,0.147H124.427z"/>
			<path fill="#FFFFFF" d="M124.608,96.236v-0.588c0-0.056-0.011-0.102-0.023-0.147l0.047-0.013c0,0.035,0.009,0.07,0.009,0.104
				c0.035-0.069,0.091-0.115,0.193-0.115c0.146,0,0.204,0.115,0.204,0.307c0,0.249-0.113,0.295-0.226,0.295
				c-0.069,0-0.114-0.012-0.159-0.035v0.192H124.608z M124.812,96.033c0.089,0,0.182-0.035,0.182-0.249
				c0-0.17-0.046-0.261-0.159-0.261c-0.102,0-0.136,0.046-0.182,0.136v0.339C124.698,96.022,124.757,96.033,124.812,96.033z"/>
		</g>
		<g opacity="0.9">
			<path fill="#FFFFFF" d="M108.974,106.042c0.239,0,0.442-0.09,0.442-0.386c0-0.228-0.227-0.294-0.476-0.362
				c-0.272-0.08-0.499-0.171-0.499-0.463c0-0.319,0.25-0.432,0.508-0.432c0.171,0,0.319,0.022,0.467,0.09l-0.046,0.09
				c-0.135-0.079-0.272-0.09-0.42-0.09c-0.224,0-0.405,0.081-0.405,0.341c0,0.225,0.19,0.292,0.429,0.36
				c0.272,0.092,0.533,0.17,0.533,0.475c0,0.341-0.25,0.465-0.522,0.465c-0.226,0-0.44-0.044-0.588-0.147l0.045-0.08
				C108.588,105.995,108.781,106.042,108.974,106.042z"/>
			<path fill="#FFFFFF" d="M109.755,104.546c0-0.046,0.022-0.069,0.067-0.069c0.058,0,0.081,0.023,0.081,0.069
				s-0.023,0.069-0.081,0.069C109.777,104.616,109.755,104.592,109.755,104.546z M109.822,106.108
				c-0.034-0.124-0.045-0.261-0.045-0.431v-0.779l0.103-0.023v0.814c0,0.146,0.012,0.294,0.034,0.418H109.822z"/>
			<path fill="#FFFFFF" d="M110.707,106.415c0.248,0,0.317-0.148,0.317-0.351v-0.171c-0.07,0.158-0.183,0.238-0.396,0.238
				c-0.318,0-0.443-0.238-0.443-0.633c0-0.544,0.248-0.646,0.499-0.646c0.146,0,0.316,0.023,0.454,0.068v1.144
				c0,0.269-0.137,0.44-0.42,0.44c-0.125,0-0.238-0.01-0.351-0.068l0.045-0.08C110.503,106.403,110.604,106.415,110.707,106.415z
				 M111.024,104.987c-0.092-0.045-0.218-0.045-0.34-0.045c-0.217,0-0.396,0.082-0.396,0.556c0,0.338,0.079,0.553,0.35,0.553
				c0.204,0,0.294-0.113,0.386-0.304V104.987z"/>
			<path fill="#FFFFFF" d="M112.291,106.108v-0.668c0-0.294-0.045-0.499-0.319-0.499c-0.213,0-0.315,0.104-0.405,0.295v0.871h-0.091
				v-0.906c0-0.113-0.024-0.226-0.045-0.317l0.089-0.01c0.022,0.056,0.033,0.136,0.047,0.214c0.079-0.148,0.181-0.237,0.405-0.237
				c0.363,0,0.41,0.293,0.41,0.566v0.69H112.291z"/>
			<path fill="#FFFFFF" d="M113.174,104.546c0-0.046,0.023-0.069,0.066-0.069c0.048,0,0.081,0.023,0.081,0.069
				s-0.033,0.069-0.081,0.069C113.197,104.616,113.174,104.592,113.174,104.546z M113.24,106.108
				c-0.033-0.124-0.043-0.261-0.043-0.431v-0.779l0.102-0.023v0.814c0,0.146,0.011,0.294,0.032,0.418H113.24z"/>
			<path fill="#FFFFFF" d="M114.475,106.108v-0.668c0-0.294-0.044-0.499-0.329-0.499c-0.201,0-0.293,0.104-0.383,0.295v0.871h-0.103
				v-0.906c0-0.113-0.011-0.226-0.034-0.317l0.08-0.01c0.01,0.056,0.033,0.136,0.033,0.214c0.09-0.148,0.206-0.237,0.429-0.237
				c0.353,0,0.41,0.293,0.41,0.566v0.69H114.475z"/>
		</g>
	</g>
</g>
</svg>
