<?xml version="1.0" encoding="utf-8"?>
<!-- Generator: Adobe Illustrator 14.0.0, SVG Export Plug-In . SVG Version: 6.00 Build 43363)  -->
<!DOCTYPE svg PUBLIC "-//W3C//DTD SVG 1.1//EN" "http://www.w3.org/Graphics/SVG/1.1/DTD/svg11.dtd">
<svg version="1.1" xmlns="http://www.w3.org/2000/svg" xmlns:xlink="http://www.w3.org/1999/xlink" x="0px" y="0px" width="440px"
	 height="305px" viewBox="0 0 440 305" enable-background="new 0 0 440 305" xml:space="preserve">
<g id="segédvonal">
</g>
<g id="Layer_2" display="none">
	<rect display="inline" fill="#99B11C" width="440" height="305"/>
</g>
<g id="_x35__réteg">
	<g>
		<path fill="#B7C9CB" d="M190.052,238.801c-2.748,11.235-5.498,22.472-8.241,33.709c25.648,0,51.298,0,76.944,0
			c-2.747-11.237-5.492-22.474-8.243-33.709C230.36,238.801,210.207,238.801,190.052,238.801z"/>
		<path fill="#E8E8E8" d="M263.51,271.916h-86.46c-2.195,0-3.977,2.087-3.977,4.666v1.753h94.418v-1.753
			C267.491,274.003,265.71,271.916,263.51,271.916z"/>
		<path fill="#E8E8E8" d="M90.268,225.681v18.572c0,3.582,2.893,6.476,6.472,6.476h247.083c3.573,0,6.474-2.894,6.474-6.476v-18.572
			H90.268z"/>
		<path fill="#FFFFFF" d="M350.296,225.681V68.385c0-3.581-2.9-6.476-6.474-6.476H96.74c-3.579,0-6.472,2.896-6.472,6.476v157.295
			H350.296z"/>
		<rect x="100.917" y="72.023" fill="#C1E2DE" width="238.729" height="142.917"/>
		<g>
			<rect x="127.321" y="191.391" fill="#FD6120" width="10.937" height="14.584"/>
			<rect x="149.194" y="178.269" fill="#FD6120" width="10.935" height="27.706"/>
			<rect x="171.066" y="168.211" fill="#FD6120" width="10.936" height="37.764"/>
			<rect x="192.939" y="177.305" fill="#FD6120" width="10.936" height="28.67"/>
			<rect x="214.813" y="144.73" fill="#FD6120" width="10.935" height="61.244"/>
			<rect x="236.687" y="155.666" fill="#FD6120" width="10.934" height="50.309"/>
			<rect x="258.557" y="133.065" fill="#FD6120" width="10.937" height="72.909"/>
			<rect x="280.431" y="112.65" fill="#FD6120" width="10.935" height="93.324"/>
			<rect x="302.301" y="91.506" fill="#FD6120" width="10.939" height="114.468"/>
		</g>
		<rect x="116.758" y="88.684" fill="#FFFFFF" width="44.619" height="4.25"/>
		<rect x="116.758" y="99.487" fill="#FFFFFF" width="80.639" height="2.615"/>
		<rect x="116.758" y="107.513" fill="#FFFFFF" width="68.532" height="2.615"/>
		<rect x="116.758" y="115.539" fill="#FFFFFF" width="75.942" height="2.616"/>
		<rect x="116.758" y="123.567" fill="#FFFFFF" width="59.104" height="2.614"/>
		<path fill="#FFFFFF" d="M116.758,133.744v7.637h26.103v-7.637H116.758z M138.482,138.868h-17.347v-2.613h17.347V138.868z"/>
		<g>
			<path fill="#FFFFFF" d="M115.785,190.333c-0.385,0-0.761-0.189-0.986-0.537c-0.354-0.545-0.199-1.276,0.346-1.628l62.329-40.374
				c0.366-0.236,0.836-0.251,1.213-0.04l18.632,10.434l22.923-35.912c0.177-0.277,0.463-0.468,0.789-0.526
				c0.321-0.059,0.657,0.025,0.917,0.228l19.628,15.095l64.62-55.74c0.489-0.425,1.231-0.37,1.657,0.122
				c0.426,0.491,0.367,1.234-0.121,1.657l-65.346,56.369c-0.426,0.362-1.044,0.381-1.485,0.04l-19.365-14.898l-22.833,35.767
				c-0.332,0.524-1.021,0.7-1.564,0.395l-18.98-10.631l-61.734,39.99C116.227,190.272,116.004,190.333,115.785,190.333
				L115.785,190.333z"/>
		</g>
		<circle fill="#99B11C" cx="117.434" cy="188.65" r="4.589"/>
		<circle fill="#99B11C" cx="177.41" cy="149.255" r="4.589"/>
		<circle fill="#99B11C" cx="197.598" cy="159.446" r="4.589"/>
		<circle fill="#99B11C" cx="221.509" cy="123.186" r="4.589"/>
		<circle fill="#99B11C" cx="242.481" cy="139.062" r="4.59"/>
		<circle fill="#99B11C" cx="306.964" cy="82.224" r="4.591"/>
		<g>
			<defs>
				<path id="SVGID_1_" d="M350.296,225.681V68.385c0-3.581-2.9-6.476-6.474-6.476H96.74c-3.579,0-6.472,2.896-6.472,6.476v157.295
					H350.296z"/>
			</defs>
			<clipPath id="SVGID_2_">
				<use xlink:href="#SVGID_1_"  overflow="visible"/>
			</clipPath>
		</g>
	</g>
</g>
<g id="nagyito" display="none">
	<g display="inline">
		<path fill="#FFFFFF" d="M408.987,238.312c-0.012,0.006-0.018,0.014-0.021,0.018c-4.506,4.486-11.793,4.471-16.276-0.037
			l-35.089-35.257c-4.472-4.5-4.464-11.771,0.021-16.254c0.008-0.008,0.014-0.014,0.018-0.02c4.504-4.482,11.789-4.467,16.272,0.037
			l35.092,35.259C413.479,226.555,413.47,233.827,408.987,238.312L408.987,238.312z"/>
		<path fill="#FFFFFF" d="M352.758,181.736h-0.002c-8.529,8.532-19.854,13.217-31.889,13.198
			c-24.801-0.048-44.938-20.257-44.892-45.057c0.016-11.968,4.705-23.235,13.188-31.714c8.522-8.526,19.84-13.208,31.871-13.189
			c11.991,0.024,23.28,4.726,31.77,13.243c8.49,8.524,13.153,19.82,13.134,31.818C365.918,161.998,361.236,173.256,352.758,181.736
			L352.758,181.736z"/>
		<g>
			<path fill="none" d="M348.954,177.939"/>
		</g>
		<path fill="#99D5DC" d="M297.301,126.298c-6.316,6.317-9.803,14.7-9.82,23.6c-0.031,18.455,14.953,33.491,33.407,33.524
			c8.954,0.019,17.379-3.47,23.73-9.823l0.002,0.004c6.313-6.313,9.795-14.688,9.813-23.586c0.018-8.925-3.458-17.332-9.778-23.677
			c-6.32-6.341-14.717-9.842-23.644-9.856C312.065,116.467,303.643,119.954,297.301,126.298L297.301,126.298z"/>
		<path fill="#C1E2DE" d="M344.654,126.34c-6.32-6.341-14.717-9.842-23.644-9.856c-2.515-0.005-4.988,0.274-7.382,0.809
			c-3.641,1.647-7.001,3.951-9.918,6.869c-6.314,6.314-9.802,14.696-9.816,23.603c-0.033,18.451,14.953,33.487,33.403,33.523
			c2.521,0.008,4.993-0.279,7.395-0.814c3.647-1.647,7.008-3.955,9.926-6.875l0.002,0.004c6.313-6.313,9.795-14.688,9.813-23.586
			C354.45,141.092,350.975,132.686,344.654,126.34z"/>
		<g>
			<path fill="#FFFFFF" d="M362.148,191.491c-2.252,2.244-5.894,2.237-8.138-0.014l-7.168-7.399
				c-2.236-2.246-2.232-5.883,0.006-8.127c0.004-0.002,0.008-0.006,0.014-0.01c2.252-2.238,5.892-2.234,8.138,0.018l7.163,7.398
				c2.241,2.25,2.237,5.886-0.006,8.126C362.157,191.483,362.15,191.491,362.148,191.491z"/>
		</g>
		<g>
			<defs>
				<path id="SVGID_3_" d="M297.301,126.298c-6.316,6.317-9.803,14.7-9.82,23.6c-0.031,18.455,14.953,33.491,33.407,33.524
					c8.954,0.019,17.379-3.47,23.73-9.823l0.002,0.004c6.313-6.313,9.795-14.688,9.813-23.586
					c0.018-8.925-3.458-17.332-9.778-23.677c-6.32-6.341-14.717-9.842-23.644-9.856
					C312.065,116.467,303.643,119.954,297.301,126.298L297.301,126.298z"/>
			</defs>
			<clipPath id="SVGID_4_">
				<use xlink:href="#SVGID_3_"  overflow="visible"/>
			</clipPath>
			<g clip-path="url(#SVGID_4_)">
				<rect x="276.175" y="68.201" fill="#2DAEB7" width="19.654" height="167.717"/>
				<rect x="306.955" y="31.084" fill="#2DAEB7" width="19.654" height="205.716"/>
			</g>
		</g>
	</g>
</g>
<g id="tablet" display="none">
	<g display="inline">
		<path fill="#FFFFFF" d="M156.269,175.885h-84c-3.385,0-6.125,2.742-6.125,6.126v110.59c0,3.378,2.74,6.119,6.125,6.119h84
			c3.376,0,6.118-2.741,6.118-6.119v-110.59C162.387,178.627,159.646,175.885,156.269,175.885z"/>
		<rect x="77.065" y="187.758" fill="#C1E2DE" width="74.399" height="99.086"/>
		<g>
			<path fill="#F1A648" d="M123.549,240.326c-0.455,1.385-1.182,2.64-2.146,3.686l7.318,10.235
				c3.703-3.192,6.362-7.561,7.371-12.532L123.549,240.326z"/>
			<path fill="#A1B400" d="M116.068,227.359c4.269,0.885,7.499,4.48,7.925,8.896l12.528,1.385c0.002-0.144,0.021-0.281,0.021-0.423
				c0-11.749-8.997-21.381-20.474-22.419V227.359z"/>
			<path fill="#2DAEB7" d="M106.601,230.466c1.405-1.541,3.254-2.665,5.375-3.106v-12.561c-6.679,0.603-12.503,4.126-16.212,9.276
				L106.601,230.466z"/>
			<path fill="#FD6120" d="M118.086,246.409c-1.245,0.555-2.614,0.872-4.064,0.872c-5.559,0-10.067-4.506-10.067-10.063
				c0-1.135,0.23-2.206,0.576-3.225l-10.847-6.391c-1.382,2.919-2.178,6.169-2.178,9.615c0,12.436,10.078,22.513,22.516,22.513
				c4.155,0,8.03-1.142,11.368-3.104L118.086,246.409z"/>
		</g>
		<g>
			<rect x="114.777" y="272.977" fill="#FFFFFF" width="21.442" height="1.901"/>
			<rect x="86.352" y="266.884" fill="#FFFFFF" width="21.446" height="1.907"/>
			<rect x="81.979" y="210.353" fill="#FFFFFF" width="21.447" height="1.9"/>
			<g>
				<polygon fill="#FFFFFF" points="107.838,268.966 106.928,268.738 108.919,260.811 109.829,261.038 107.838,268.966 				"/>
			</g>
			<g>
				<polygon fill="#FFFFFF" points="105.391,215.115 102.539,210.827 103.322,210.307 106.172,214.597 105.391,215.115 				"/>
			</g>
			<rect x="124.903" y="208.712" fill="#FFFFFF" width="21.444" height="1.903"/>
			<g>
				<polygon fill="#FFFFFF" points="122.426,214.785 121.621,214.301 124.994,208.686 125.798,209.165 122.426,214.785 				"/>
			</g>
			<g>
				<polygon fill="#FFFFFF" points="135.272,273.481 130.625,253.85 131.537,253.634 136.184,273.268 135.272,273.481 				"/>
			</g>
		</g>
	</g>
</g>
</svg>
