<?xml version="1.0" encoding="utf-8"?>
<!-- Generator: Adobe Illustrator 14.0.0, SVG Export Plug-In . SVG Version: 6.00 Build 43363)  -->
<!DOCTYPE svg PUBLIC "-//W3C//DTD SVG 1.1//EN" "http://www.w3.org/Graphics/SVG/1.1/DTD/svg11.dtd">
<svg version="1.1" xmlns="http://www.w3.org/2000/svg" xmlns:xlink="http://www.w3.org/1999/xlink" x="0px" y="0px" width="440px"
	 height="305px" viewBox="0 0 440 305" enable-background="new 0 0 440 305" xml:space="preserve">
<g id="segédvonal" display="none">
</g>
<g id="Layer_2" display="none">
	<rect display="inline" fill="#4DABCF" width="440" height="305"/>
</g>
<g id="monitor">
	<g>
		<path fill="#B7C9CB" d="M190.174,238.313c-2.746,11.223-5.492,22.445-8.235,33.671c25.621,0,51.239,0,76.86,0
			c-2.743-11.226-5.492-22.448-8.235-33.671C230.436,238.313,210.303,238.313,190.174,238.313z"/>
		<path fill="#E8E8E8" d="M263.556,271.389h-86.37c-2.192,0-3.969,2.086-3.969,4.665v1.748h94.307v-1.748
			C267.523,273.475,265.745,271.389,263.556,271.389z"/>
		<path fill="#E8E8E8" d="M90.503,225.207v18.553c0,3.579,2.891,6.469,6.464,6.469h246.801c3.57,0,6.469-2.89,6.469-6.469v-18.553
			H90.503z"/>
		<path fill="#FFFFFF" d="M350.236,225.207V68.092c0-3.574-2.898-6.468-6.469-6.468H96.967c-3.573,0-6.464,2.894-6.464,6.468
			v157.115H350.236z"/>
		<rect x="101.142" y="71.726" fill="#C1E2DE" width="238.456" height="142.756"/>
		<path fill="#FFFFFF" d="M339.598,220.5c0,0.438-0.805,0.795-1.793,0.795H102.523c-0.994,0-1.797-0.357-1.797-0.795V72.52
			c0-0.439,0.803-0.794,1.797-0.794h235.282c0.988,0,1.793,0.355,1.793,0.794V220.5z"/>
		<rect x="102.101" y="131.845" fill="#99B11C" width="236.538" height="89.449"/>
		<g>
			<rect x="155.873" y="159.534" fill="#FFFFFF" width="128.529" height="8.439"/>
			<rect x="155.873" y="176.198" fill="#FFFFFF" width="128.529" height="2.112"/>
			<rect x="155.873" y="183.848" fill="#FFFFFF" width="128.529" height="2.113"/>
			<rect x="171.855" y="191.494" fill="#FFFFFF" width="98.399" height="2.111"/>
		</g>
		<rect x="188.725" y="89.046" fill="#FD6120" width="63.286" height="14.953"/>
		<g>
			<rect x="130.889" y="112.344" fill="#FD6120" width="31.319" height="2.11"/>
			<rect x="167.114" y="112.344" fill="#FD6120" width="31.315" height="2.11"/>
			<rect x="203.335" y="112.344" fill="#FD6120" width="31.322" height="2.11"/>
			<rect x="239.557" y="112.344" fill="#FD6120" width="31.321" height="2.11"/>
			<rect x="275.777" y="112.344" fill="#FD6120" width="31.326" height="2.11"/>
		</g>
		<g>
			<g>
				<g>
					<polygon fill="#FFFFFF" points="326.422,181.051 324.887,179.935 327.333,176.568 324.887,173.206 326.422,172.088 
						329.682,176.568 326.422,181.051 					"/>
				</g>
				<g>
					<polygon fill="#FFFFFF" points="328.507,177.52 319.821,177.52 319.821,175.619 328.507,175.619 328.507,177.52 					"/>
				</g>
			</g>
			<g>
				<g>
					<polygon fill="#FFFFFF" points="114.323,181.051 111.064,176.568 114.323,172.088 115.858,173.206 113.411,176.568 
						115.858,179.935 114.323,181.051 					"/>
				</g>
				<g>
					<polygon fill="#FFFFFF" points="120.924,177.52 112.237,177.52 112.237,175.619 120.924,175.619 120.924,177.52 					"/>
				</g>
			</g>
		</g>
	</g>
</g>
<g id="mobil" display="none">
	<g display="inline">
		<path fill="#FFFFFF" d="M149.241,209.396h-33.944c-4.109,0-7.446,3.337-7.446,7.44v81.21c0,4.108,3.337,7.439,7.446,7.439h33.944
			c4.11,0,7.438-3.331,7.438-7.439v-81.21C156.679,212.733,153.352,209.396,149.241,209.396z"/>
		<path fill="#B7C9CB" d="M125.867,215.141h12.796c0.361,0,0.653,0.295,0.653,0.653c0,0.362-0.292,0.654-0.653,0.654h-12.796
			c-0.358,0-0.648-0.292-0.648-0.654C125.219,215.436,125.509,215.141,125.867,215.141z"/>
		<path fill="#E8E8E8" d="M132.266,300.005c-2.377,0-4.306-1.932-4.306-4.309c0-2.381,1.929-4.307,4.306-4.307
			c2.382,0,4.307,1.926,4.307,4.307C136.573,298.073,134.647,300.005,132.266,300.005z"/>
		<g>
			<rect x="111.116" y="224.142" fill="#99B11C" width="42.301" height="62.665"/>
			<polygon fill="#99B11C" points="153.417,286.807 111.116,286.807 111.116,224.142 			"/>
		</g>
		<rect x="116.887" y="240.467" fill="#FFFFFF" width="30.76" height="8.254"/>
		<rect x="116.887" y="251.348" fill="#FFFFFF" width="30.76" height="8.252"/>
		<rect x="116.887" y="262.224" fill="#FD6120" width="30.76" height="8.253"/>
		<rect x="124.92" y="266.006" fill="#C1E2DE" width="14.692" height="0.69"/>
	</g>
</g>
</svg>
