<?xml version="1.0" encoding="utf-8"?>
<!-- Generator: Adobe Illustrator 15.1.0, SVG Export Plug-In . SVG Version: 6.00 Build 0)  -->
<!DOCTYPE svg PUBLIC "-//W3C//DTD SVG 1.1//EN" "http://www.w3.org/Graphics/SVG/1.1/DTD/svg11.dtd">
<svg version="1.1" id="Layer_1" xmlns="http://www.w3.org/2000/svg" xmlns:xlink="http://www.w3.org/1999/xlink" x="0px" y="0px"
	 width="200px" height="75px" viewBox="0 0 200 75" enable-background="new 0 0 200 75" xml:space="preserve">
<g>
	<g id="informatika">
		<g>
			<g>
				<path fill="#82B721" d="M5.328,58.133H4.449v-8.648h0.878V58.133z"/>
				<path fill="#82B721" d="M24.698,56.85h0.024v-7.363h0.881v8.648h-1.099l-5.032-7.441h-0.026v7.441h-0.881v-8.648h1.1
					L24.698,56.85z"/>
				<path fill="#82B721" d="M39.724,58.133H38.84v-8.648h5.219v0.783h-4.335v3.006h4.029v0.768h-4.029V58.133L39.724,58.133z"/>
				<path fill="#82B721" d="M60.694,58.354c-2.576,0-4.508-1.918-4.508-4.543c0-2.627,1.929-4.545,4.508-4.545
					c2.579,0,4.508,1.916,4.508,4.545C65.203,56.436,63.273,58.354,60.694,58.354z M60.694,50.035c-2.22,0-3.579,1.756-3.579,3.775
					c0,2.014,1.355,3.76,3.579,3.76c2.224,0,3.582-1.746,3.582-3.76C64.274,51.793,62.918,50.035,60.694,50.035z"/>
				<path fill="#82B721" d="M78.858,58.133h-0.88v-8.648h2.541c1.707,0,2.955,0.623,2.955,2.309c0,1.283-0.952,2.09-2.212,2.225
					l2.528,4.117h-1.074l-2.394-4.047h-1.466L78.858,58.133L78.858,58.133z M78.858,53.334h1.527c1.404,0,2.211-0.514,2.211-1.541
					c0-1.135-0.868-1.551-2.172-1.551H78.86L78.858,53.334L78.858,53.334z"/>
				<path fill="#82B721" d="M100.515,56.643h0.015l2.894-7.154h1.345v8.646h-0.882v-7.512h-0.024l-3.127,7.512h-0.467l-3.127-7.512
					h-0.025v7.512h-0.881v-8.646h1.347L100.515,56.643z"/>
				<path fill="#82B721" d="M117.947,58.133h-0.964l3.735-8.648h0.856l3.713,8.648h-0.978l-0.952-2.271h-4.471L117.947,58.133z
					 M119.215,55.057h3.813l-1.906-4.594L119.215,55.057z"/>
				<path fill="#82B721" d="M139.541,58.133h-0.881v-7.867h-2.896v-0.783h6.67v0.783h-2.894V58.133L139.541,58.133z"/>
				<path fill="#82B721" d="M155.553,58.133h-0.879v-8.648h0.879V58.133z"/>
				<path fill="#82B721" d="M169.668,53.371h0.012l4.118-3.887h1.259l-4.361,3.922l4.607,4.729h-1.297l-4.326-4.607h-0.012v4.607
					h-0.877v-8.65h0.877V53.371z"/>
				<path fill="#82B721" d="M187.197,58.133h-0.966l3.74-8.648h0.854l3.715,8.648h-0.979l-0.95-2.271h-4.472L187.197,58.133z
					 M188.467,55.057h3.812l-1.906-4.594L188.467,55.057z"/>
			</g>
		</g>
	</g>
	<g id="studio">
		<g>
			<path fill="#82B721" d="M101.073,25.819c-0.929-1.811-2.924-3.065-5.34-3.065c-2.273,0-4.598,0.976-4.598,3.389
				c0,2.044,1.625,2.975,5.202,3.716c5.111,1.068,7.524,2.974,7.524,6.362c0,4.969-4.18,6.733-8.173,6.733
				c-3.295,0-6.596-1.299-8.591-4.227l2.507-1.857c1.115,1.904,3.484,3.389,6.038,3.389c2.693,0,5.108-0.975,5.108-3.807
				c0-2.276-2.275-3.205-6.408-4.179c-2.554-0.604-6.223-1.718-6.223-5.852c0-4.411,3.807-6.315,7.756-6.315
				c3.018,0,6.221,1.439,7.615,3.899L101.073,25.819z"/>
			<path fill="#82B721" d="M137.208,42.396c-0.095-1.16-0.187-2.785-0.187-3.715h-0.093c-1.204,2.508-4.363,4.271-7.43,4.271
				c-5.524,0-8.269-3.576-8.269-8.962V20.665h3.159v12.027c0,4.552,1.351,7.615,5.9,7.615c3.342,0,6.593-2.692,6.593-8.498V20.664
				h3.159v16.951c0,1.159,0.044,3.296,0.185,4.782H137.208z"/>
			<path fill="#82B721" d="M186.483,42.953c-6.731,0-11.562-4.875-11.562-11.424c0-6.545,4.83-11.424,11.562-11.424
				c6.785,0,11.612,4.876,11.612,11.424C198.096,38.08,193.269,42.953,186.483,42.953z M186.483,22.755
				c-5.013,0-8.218,3.9-8.218,8.776c0,4.877,3.205,8.732,8.218,8.732c5.065,0,8.269-3.855,8.269-8.732
				C194.752,26.655,191.549,22.755,186.483,22.755z"/>
			<rect x="169.303" y="20.665" fill="#82B721" width="3.158" height="21.732"/>
			<path fill="#82B721" d="M112.872,16.746h-3.157v3.92h-4.505v2.647h4.505v13.559c0,4.784,3.25,5.805,5.573,5.805
				c1.441,0,2.6-0.23,3.713-0.65l-0.135-2.738c-0.839,0.418-1.86,0.695-2.741,0.695c-1.906,0-3.251-0.742-3.251-3.994V23.313h6.131
				v-2.648h-6.131L112.872,16.746L112.872,16.746z"/>
			<path fill="#82B721" d="M162.008,16.746v7.681h-0.093c-1.86-2.834-5.105-4.32-8.219-4.32c-6.783,0-11.236,5.016-11.236,11.424
				s4.453,11.426,11.236,11.426c3.113,0,6.358-1.488,8.219-4.227h0.093v3.668h3.158V16.746H162.008L162.008,16.746z M154.02,40.262
				c-5.246,0-8.22-3.901-8.22-8.731c0-4.831,2.974-8.777,8.22-8.777c4.877,0,8.361,3.809,8.361,8.777
				C162.381,36.5,158.896,40.262,154.02,40.262z"/>
		</g>
	</g>
	<g id="power">
		<g>
			<path fill="#82B721" d="M42.921,35.808c-3.519,0-5.72-2.833-5.72-6.208c0-3.372,2.248-6.255,5.622-6.255
				c1.614,0,3.375,0.783,4.252,1.956l4.645-5.377c-1.907-1.955-5.573-3.275-9.042-3.275c-7.576,0-13.588,5.036-13.588,12.953
				c0,8.068,5.963,12.956,13.638,12.956c3.568,0,6.99-1.172,8.993-3.131l-4.45-5.424C46.295,35.174,44.535,35.808,42.921,35.808z"/>
			<path fill="#82B721" d="M20.55,34.125c-1.087,1.324-2.772,2.27-5.153,2.27c-2.884,0-5.575-1.908-5.818-4.595h17.646
				c0.05-0.586,0.05-1.271,0.05-1.908c0-8.31-5.036-13.247-12.221-13.247c-7.381,0-13.15,5.083-13.15,13.051
				c0,8.213,6.063,12.858,13.395,12.858c3.923,0,7.122-1.191,9.427-3.34L20.55,34.125z M15.104,22.168
				c3.18,0,4.791,2.105,4.791,4.645H9.582C9.776,24.322,12.025,22.168,15.104,22.168z"/>
			<path fill="#82B721" d="M64.677,16.647c-7.332,0-13.49,4.889-13.49,12.856c0,7.97,6.159,13.053,13.49,13.053
				c7.379,0,13.538-5.083,13.538-13.053C78.215,21.535,72.057,16.647,64.677,16.647z M63.664,19.391h2.292v8.284h-2.292V19.391z
				 M64.807,37.049c-4.297,0-7.792-3.495-7.792-7.792c0-2.633,1.317-4.963,3.323-6.373l1.951,1.687
				c-1.674,0.904-2.828,2.656-2.828,4.688c0,2.948,2.399,5.347,5.347,5.347c2.949,0,5.35-2.399,5.35-5.347
				c0-2.015-1.133-3.75-2.78-4.662l1.926-1.692c1.995,1.414,3.298,3.731,3.298,6.354C72.602,33.555,69.104,37.049,64.807,37.049z"/>
		</g>
	</g>
</g>
</svg>
