<?xml version="1.0" encoding="UTF-8" standalone="no"?>
<!-- Created with Inkscape (http://www.inkscape.org/) -->

<svg
   xmlns:dc="http://purl.org/dc/elements/1.1/"
   xmlns:cc="http://creativecommons.org/ns#"
   xmlns:rdf="http://www.w3.org/1999/02/22-rdf-syntax-ns#"
   xmlns:svg="http://www.w3.org/2000/svg"
   xmlns="http://www.w3.org/2000/svg"
   xmlns:sodipodi="http://sodipodi.sourceforge.net/DTD/sodipodi-0.dtd"
   xmlns:inkscape="http://www.inkscape.org/namespaces/inkscape"
   id="svg3336"
   version="1.1"
   inkscape:version="0.91 r13725"
   xml:space="preserve"
   width="200"
   height="75"
   viewBox="0 0 199.99999 75"
   sodipodi:docname="economic_studio.svg"><metadata
     id="metadata3342"><rdf:RDF><cc:Work
         rdf:about=""><dc:format>image/svg+xml</dc:format><dc:type
           rdf:resource="http://purl.org/dc/dcmitype/StillImage" /><dc:title></dc:title></cc:Work></rdf:RDF></metadata><defs
     id="defs3340"><clipPath
       clipPathUnits="userSpaceOnUse"
       id="clipPath3350"><path
         d="m 0,595.275 841.89,0 L 841.89,0 0,0 0,595.275 Z"
         id="path3352"
         inkscape:connector-curvature="0" /></clipPath><clipPath
       clipPathUnits="userSpaceOnUse"
       id="clipPath3406"><path
         d="m 0,595.275 841.89,0 L 841.89,0 0,0 0,595.275 Z"
         id="path3408"
         inkscape:connector-curvature="0" /></clipPath><clipPath
       clipPathUnits="userSpaceOnUse"
       id="clipPath3446"><path
         d="m 0,595.275 841.89,0 L 841.89,0 0,0 0,595.275 Z"
         id="path3448"
         inkscape:connector-curvature="0" /></clipPath></defs><sodipodi:namedview
     pagecolor="#ffffff"
     bordercolor="#666666"
     borderopacity="1"
     objecttolerance="10"
     gridtolerance="10"
     guidetolerance="10"
     inkscape:pageopacity="0"
     inkscape:pageshadow="2"
     inkscape:window-width="954"
     inkscape:window-height="721"
     id="namedview3338"
     showgrid="false"
     inkscape:zoom="1.1396413"
     inkscape:cx="-20.075798"
     inkscape:cy="-3.1911248"
     inkscape:window-x="3752"
     inkscape:window-y="704"
     inkscape:window-maximized="0"
     inkscape:current-layer="g3344"
     fit-margin-top="2.7755576e-017"
     fit-margin-left="0"
     fit-margin-right="0"
     fit-margin-bottom="2.7755576e-017" /><g
     id="g3344"
     inkscape:groupmode="layer"
     inkscape:label="economic_studio"
     transform="matrix(1.25,0,0,-1.25,-416.83038,450.238)"><g
       id="g3346"
       transform="translate(0,8)"><g
         id="g3348"
         clip-path="url(#clipPath3350)"><g
           id="g3354"
           transform="translate(445.5225,300.1904)"><path
             d="m 0,0 c -3.626,0 -6.399,1.805 -6.448,4.197 -0.014,0.721 0.232,1.436 0.645,1.862 0.234,0.244 0.503,0.375 0.779,0.379 0.486,0.001 0.872,-0.344 0.878,-0.764 C -4.139,5.51 -4.179,5.422 -4.322,5.094 L -4.351,5.027 C -4.499,4.713 -4.56,4.48 -4.556,4.264 -4.526,2.838 -2.438,1.676 0.099,1.676 L 0.274,1.678 C 3.069,1.736 5.292,3.176 5.271,4.328 5.257,4.904 4.907,5.33 2.866,6.713 l -0.33,0.225 c -2.012,1.367 -2.222,1.509 -3.349,2.41 -0.64,0.521 -1.129,0.982 -1.497,1.412 -0.623,0.711 -1.037,1.765 -1.054,2.689 -0.043,2.034 1.718,4.042 4.713,5.372 1.632,0.714 3.068,1.048 4.655,1.08 l 0.161,0.002 c 2.773,0 4.67,-1.47 4.715,-3.654 0.025,-1.26 -0.703,-3.503 -1.527,-4.71 -0.256,-0.406 -0.67,-0.66 -1.1,-0.666 -0.563,-0.002 -0.982,0.42 -0.993,0.982 -0.007,0.37 0.114,0.772 0.392,1.299 l 0.607,1.194 c 0.418,0.827 0.627,1.333 0.619,1.805 -0.024,1.101 -1.223,1.966 -2.725,1.966 l -0.085,0 C 4.06,18.077 1.571,17.151 -0.122,15.818 -0.916,15.196 -1.46,14.193 -1.443,13.379 -1.431,12.773 -1.122,12.164 -0.522,11.561 0.138,10.9 1.138,10.105 2.29,9.314 L 4.137,8.031 C 6.298,6.521 7.112,5.506 7.138,4.287 7.188,1.928 4.215,0.086 0.226,0.002 L 0,0 Z"
             style="fill:#006328;fill-opacity:1;fill-rule:nonzero;stroke:none"
             id="path3356"
             inkscape:connector-curvature="0" /></g><g
           id="g3358"
           transform="translate(454.0371,314.4097)"><path
             d="M 0,0 C 0.449,0.889 0.66,1.416 0.648,1.938 0.621,3.23 -0.747,4.222 -2.451,4.185 -4.515,4.144 -7.055,3.21 -8.813,1.823 c -0.867,-0.676 -1.451,-1.761 -1.43,-2.669 0.013,-0.688 0.358,-1.367 1.003,-2.014 0.676,-0.676 1.681,-1.48 2.853,-2.281 l 1.844,-1.281 c 2.065,-1.444 2.855,-2.391 2.879,-3.518 0.044,-2.172 -2.863,-3.91 -6.631,-3.99 -3.547,-0.074 -6.334,1.631 -6.382,3.914 -0.019,1.017 0.537,1.937 1.144,1.949 0.303,0.006 0.582,-0.209 0.586,-0.484 0.004,-0.11 -0.022,-0.166 -0.18,-0.528 -0.157,-0.332 -0.235,-0.607 -0.23,-0.884 0.034,-1.651 2.317,-2.922 5.123,-2.864 2.777,0.057 5.306,1.485 5.276,2.942 -0.016,0.744 -0.521,1.258 -2.53,2.617 -2.318,1.576 -2.485,1.682 -3.66,2.619 -0.56,0.457 -1.063,0.916 -1.459,1.375 -0.591,0.674 -0.97,1.658 -0.987,2.512 -0.04,1.921 1.682,3.83 4.543,5.1 1.582,0.693 2.979,1.024 4.547,1.058 C 0.191,5.451 2.034,4.058 2.078,2.023 2.102,0.841 1.402,-1.346 0.604,-2.518 0.389,-2.852 0.064,-3.053 -0.267,-3.061 c -0.383,-0.006 -0.693,0.289 -0.7,0.703 -0.008,0.303 0.096,0.66 0.359,1.162 L 0,0 Z"
             style="fill:#006328;fill-opacity:1;fill-rule:nonzero;stroke:none"
             id="path3360"
             inkscape:connector-curvature="0" /></g><g
           id="g3362"
           transform="translate(457.1836,301.0654)"><path
             d="m 0,0 c -1.063,0 -1.713,0.771 -1.741,2.064 -0.022,1.045 0.392,3.057 0.96,4.745 L -0.839,6.807 c -0.555,0 -1.852,0 -1.874,1.043 -0.008,0.406 0.383,0.787 0.818,0.8 0.127,0 0.387,-0.023 0.551,-0.05 0.256,-0.039 0.522,-0.061 0.74,-0.061 l 0.061,0 c 0.176,0.004 0.25,0.004 0.355,0.027 l 0.044,0.098 0.441,1.094 0.57,1.547 0.492,1.355 c 0.289,0.749 0.571,1.185 1.152,1.2 0.516,0 0.901,-0.413 0.911,-0.96 C 3.431,12.504 3.285,12.027 2.908,11.199 L 2.326,9.973 1.795,8.725 2.035,8.756 c 0.228,0.033 0.403,0.037 0.548,0.041 l 0.064,0 C 3.564,8.797 3.902,8.316 3.912,7.906 3.921,7.414 3.432,7.064 2.666,7.014 L 1.727,6.967 1.083,6.9 1.079,6.9 C 0.66,5.92 0.328,4.748 0.042,3.227 -0.029,2.84 -0.074,2.41 -0.068,2.184 -0.059,1.65 0.082,1.65 0.193,1.65 0.259,1.652 0.431,1.695 0.525,1.754 0.677,1.822 0.729,1.848 0.734,1.852 L 0.816,1.883 C 0.885,1.908 0.967,1.938 1.078,1.943 1.473,1.943 1.786,1.621 1.795,1.23 1.801,0.971 1.625,0.662 1.359,0.465 1.046,0.195 0.525,0.008 0.047,0.002 L 0,0 Z"
             style="fill:#006328;fill-opacity:1;fill-rule:nonzero;stroke:none"
             id="path3364"
             inkscape:connector-curvature="0" /></g><g
           id="g3366"
           transform="translate(456.9434,304.3447)"><path
             d="m 0,0 c -0.074,-0.416 -0.12,-0.855 -0.113,-1.104 0.009,-0.578 0.179,-0.82 0.566,-0.812 0.11,0.002 0.328,0.061 0.463,0.146 0.135,0.059 0.191,0.086 0.191,0.086 0.081,0.03 0.137,0.057 0.219,0.061 0.221,0.006 0.416,-0.184 0.422,-0.432 0.003,-0.166 -0.129,-0.386 -0.32,-0.529 -0.296,-0.254 -0.762,-0.402 -1.146,-0.408 -0.935,-0.022 -1.471,0.629 -1.497,1.783 -0.021,1.072 0.455,3.311 1.08,5.031 C -0.271,3.818 -0.326,3.818 -0.41,3.816 -1.646,3.789 -2.175,4 -2.186,4.576 c -0.003,0.248 0.264,0.5 0.54,0.506 0.082,0.004 0.332,-0.018 0.496,-0.045 0.304,-0.047 0.606,-0.068 0.854,-0.064 0.247,0.006 0.33,0.007 0.549,0.068 l 0.104,0.221 0.446,1.111 0.572,1.553 0.496,1.355 c 0.287,0.751 0.501,1.003 0.885,1.011 0.33,0.006 0.611,-0.264 0.621,-0.677 C 3.383,9.26 3.229,8.787 2.887,8.039 L 2.307,6.814 1.705,5.4 1.573,5.094 1.818,5.127 2.313,5.193 C 2.532,5.225 2.699,5.227 2.836,5.23 3.467,5.244 3.857,5.006 3.865,4.619 3.871,4.289 3.465,4.061 2.888,4.021 L 1.954,3.975 1.294,3.908 1.13,3.902 C 0.656,2.848 0.297,1.574 0,0"
             style="fill:#006328;fill-opacity:1;fill-rule:nonzero;stroke:none"
             id="path3368"
             inkscape:connector-curvature="0" /></g><g
           id="g3370"
           transform="translate(465.6348,312.3545)"><path
             d="m 0,0 -0.033,0 c -0.615,0 -1.086,0.385 -1.098,0.896 -0.01,0.647 0.579,0.877 1.235,1.073 1.045,0.319 2.218,1.012 3.064,1.816 0.27,0.251 0.514,0.426 0.835,0.473 l 0.093,0.006 c 0.5,0 0.843,-0.349 0.854,-0.849 C 4.967,2.562 4.253,2.022 2.231,0.93 0.834,0.193 0.432,0.008 0,0 m 0.203,-11.002 -0.037,0 c -0.833,0 -1.363,0.604 -1.385,1.578 -0.002,0.104 -10e-4,0.201 0.004,0.311 -0.892,-1.254 -1.521,-1.729 -2.218,-1.744 -0.814,0 -1.317,0.636 -1.34,1.664 -0.022,1.119 0.35,2.334 1.478,5.416 0.072,0.177 0.143,0.347 0.217,0.521 0.121,0.285 0.246,0.58 0.359,0.871 0.316,0.856 0.67,1.43 1.365,1.444 0.528,0 0.87,-0.34 0.881,-0.848 0.008,-0.32 -0.152,-0.707 -0.474,-1.35 l -0.422,-0.838 c -0.958,-1.91 -1.724,-4.16 -1.704,-5.017 0,-0.031 10e-4,-0.059 0.005,-0.078 0.14,0.078 0.457,0.39 1.147,1.445 0.542,0.84 1.007,1.732 1.211,2.33 l 0.335,1.02 c 0.21,0.631 0.58,1.472 1.368,1.488 0.461,0 0.792,-0.357 0.802,-0.848 C 1.797,-3.838 1.744,-4.109 1.631,-4.475 0.888,-6.561 0.383,-8.549 0.393,-9.033 c 0.003,-0.168 0.08,-0.256 0.104,-0.262 0.044,0.012 0.095,0.024 0.161,0.031 0.081,0.03 0.155,0.032 0.207,0.034 0.373,0.001 0.666,-0.307 0.674,-0.688 0.006,-0.281 -0.135,-0.527 -0.428,-0.76 -0.312,-0.218 -0.588,-0.318 -0.908,-0.324"
             style="fill:#006328;fill-opacity:1;fill-rule:nonzero;stroke:none"
             id="path3372"
             inkscape:connector-curvature="0" /></g><g
           id="g3374"
           transform="translate(469.7354,316.3296)"><path
             d="m 0,0 c 0.329,0.007 0.554,-0.208 0.563,-0.566 0.012,-0.662 -0.556,-1.138 -2.569,-2.226 -1.36,-0.714 -1.741,-0.89 -2.098,-0.896 -0.469,-0.012 -0.833,0.256 -0.839,0.615 -0.008,0.358 0.235,0.555 1.028,0.791 1.066,0.325 2.291,1.039 3.18,1.882 0.269,0.253 0.461,0.367 0.68,0.399 0.027,0 0.027,0 0.055,0.001 m -7.538,-14.545 c -0.633,-0.014 -1.029,0.502 -1.049,1.38 -0.019,1.045 0.313,2.18 1.46,5.315 0.183,0.443 0.392,0.914 0.575,1.387 0.338,0.914 0.635,1.252 1.103,1.261 0.356,0.008 0.581,-0.209 0.588,-0.566 0.007,-0.246 -0.124,-0.578 -0.443,-1.219 l -0.422,-0.834 c -0.976,-1.947 -1.755,-4.248 -1.736,-5.154 0.004,-0.246 0.09,-0.385 0.229,-0.381 0.3,0.006 0.705,0.455 1.452,1.6 0.559,0.863 1.034,1.781 1.243,2.39 l 0.335,1.026 c 0.286,0.857 0.636,1.279 1.102,1.289 0.303,0.006 0.502,-0.239 0.508,-0.569 0.002,-0.164 -0.047,-0.414 -0.149,-0.746 -0.703,-1.967 -1.265,-4.07 -1.253,-4.648 0.008,-0.303 0.178,-0.547 0.396,-0.541 0.055,0 0.11,0.027 0.22,0.031 0.054,0.029 0.109,0.029 0.164,0.031 0.193,0.004 0.362,-0.185 0.365,-0.404 0.005,-0.193 -0.101,-0.361 -0.317,-0.529 -0.244,-0.17 -0.463,-0.258 -0.738,-0.264 -0.688,-0.016 -1.11,0.473 -1.127,1.297 -0.006,0.33 0.014,0.605 0.162,1.488 -1.2,-1.894 -1.928,-2.623 -2.668,-2.64"
             style="fill:#006328;fill-opacity:1;fill-rule:nonzero;stroke:none"
             id="path3376"
             inkscape:connector-curvature="0" /></g><g
           id="g3378"
           transform="translate(469.707,303.6514)"><path
             d="m 0,0 c 0.014,-0.621 0.263,-1.053 0.605,-1.053 0.555,0.01 1.372,0.682 2.25,1.836 C 4.345,2.746 5.088,4.32 5.064,5.465 5.052,6.031 4.919,6.703 4.349,6.703 l -0.016,0 C 3.452,6.684 2.203,5.543 1.228,3.859 0.402,2.428 0.055,1.328 0.025,0.063 L -0.059,-0.133 C -0.014,-0.088 0,-0.029 0,0 m 0.547,-2.564 c -1.235,0 -2.024,1 -2.057,2.609 -0.047,2.217 1.02,4.75 2.779,6.617 C 2.301,7.734 3.475,8.389 4.41,8.406 5.117,8.408 5.67,8.139 6.024,7.648 l 0.419,1.166 0.594,1.768 c 0.688,2.063 0.908,2.547 1.512,2.561 0.468,0 0.847,-0.468 0.858,-1.042 C 9.414,11.711 9.278,11.214 8.826,9.979 8.752,9.818 8.531,9.275 8.148,8.205 L 7.523,6.459 C 7.043,5.137 6.558,3.234 6.289,1.613 6.211,1.236 6.172,0.906 6.176,0.672 6.189,-0.004 6.393,-0.352 6.577,-0.385 L 6.85,-0.436 C 7.164,-0.531 7.334,-0.742 7.34,-1.01 7.342,-1.154 7.288,-1.289 7.184,-1.398 7.019,-1.572 6.74,-1.668 6.379,-1.674 c -1.233,0 -1.632,0.82 -1.742,2.11 -1.424,-1.891 -2.873,-2.973 -4.043,-3 l -0.047,0 z"
             style="fill:#006328;fill-opacity:1;fill-rule:nonzero;stroke:none"
             id="path3380"
             inkscape:connector-curvature="0" /></g><g
           id="g3382"
           transform="translate(469.4199,303.6416)"><path
             d="m 0,0 c 0.018,-0.799 0.387,-1.342 0.908,-1.33 0.66,0.014 1.527,0.719 2.463,1.949 C 4.898,2.631 5.662,4.271 5.639,5.48 5.616,6.471 5.248,7.014 4.615,7.002 3.626,6.979 2.302,5.795 1.266,4.016 0.416,2.537 0.055,1.375 0.025,0.082 -0.001,0.053 0,0.025 0,0 m 0.873,-2.268 c -1.101,-0.021 -1.778,0.844 -1.809,2.329 -0.044,2.119 0.979,4.587 2.7,6.412 0.943,0.982 2.058,1.64 2.939,1.658 0.822,0.017 1.41,-0.412 1.648,-1.205 L 6.402,7.066 7,8.729 7.598,10.5 c 0.672,2.022 0.858,2.357 1.244,2.366 0.302,0.006 0.556,-0.347 0.564,-0.759 C 9.414,11.749 9.26,11.224 8.844,10.088 8.764,9.918 8.529,9.338 8.164,8.313 L 7.539,6.566 C 7.045,5.207 6.563,3.299 6.295,1.67 6.219,1.311 6.172,0.951 6.178,0.676 6.191,-0.064 6.424,-0.584 6.811,-0.658 L 7.088,-0.707 C 7.252,-0.76 7.338,-0.867 7.34,-1.006 7.344,-1.225 7.072,-1.369 6.66,-1.377 5.613,-1.396 5.217,-0.746 5.178,1.125 L 5.176,1.289 C 3.652,-0.945 2.082,-2.24 0.873,-2.268"
             style="fill:#006328;fill-opacity:1;fill-rule:nonzero;stroke:none"
             id="path3384"
             inkscape:connector-curvature="0" /></g><g
           id="g3386"
           transform="translate(480.5596,310.4365)"><path
             d="m 0,0 -0.024,0 c -0.527,0 -0.902,0.367 -0.914,0.898 -0.005,0.291 0.148,0.67 0.37,0.899 0.226,0.24 0.493,0.369 0.77,0.375 0.524,0 0.929,-0.406 0.94,-0.928 C 1.148,0.904 1.028,0.586 0.802,0.35 0.59,0.129 0.306,0.004 0,0 m -1.277,-8.695 -0.039,0 c -0.544,0 -1.462,0.246 -1.497,1.906 -0.016,0.699 0.275,2.117 0.761,3.709 0.517,1.693 1.061,2.42 1.818,2.435 0.453,0 0.815,-0.341 0.827,-0.763 C 0.595,-1.568 0.534,-1.83 0.462,-1.98 0.427,-2.078 0.311,-2.313 0.1,-2.736 l -0.193,-0.389 c -0.619,-1.248 -1.094,-2.785 -1.078,-3.492 0.009,-0.41 0.07,-0.477 0.483,-0.533 0.568,-0.114 0.638,-0.455 0.642,-0.596 0.008,-0.522 -0.656,-0.938 -1.231,-0.949"
             style="fill:#006328;fill-opacity:1;fill-rule:nonzero;stroke:none"
             id="path3388"
             inkscape:connector-curvature="0" /></g><g
           id="g3390"
           transform="translate(480.1973,312.0361)"><path
             d="M 0,0 C 0.16,0.168 0.353,0.279 0.57,0.285 0.93,0.291 1.21,-0.004 1.218,-0.361 1.228,-0.883 0.852,-1.305 0.356,-1.314 -0.027,-1.322 -0.279,-1.08 -0.289,-0.693 -0.293,-0.475 -0.161,-0.17 0,0 m -1.416,-4.764 c 0.465,1.522 0.945,2.221 1.551,2.235 0.274,0.004 0.525,-0.207 0.533,-0.485 0.002,-0.111 -0.049,-0.332 -0.102,-0.443 -0.052,-0.139 -0.238,-0.5 -0.554,-1.139 -0.66,-1.334 -1.123,-2.883 -1.108,-3.627 0.012,-0.55 0.181,-0.738 0.732,-0.812 0.251,-0.049 0.389,-0.154 0.391,-0.32 0.007,-0.303 -0.482,-0.645 -0.949,-0.653 -0.797,-0.015 -1.221,0.551 -1.243,1.627 -0.014,0.631 0.26,2.012 0.749,3.617"
             style="fill:#006328;fill-opacity:1;fill-rule:nonzero;stroke:none"
             id="path3392"
             inkscape:connector-curvature="0" /></g><g
           id="g3394"
           transform="translate(485.5947,313.0693)"><path
             d="m 0,0 -0.028,0 c -0.616,0 -1.09,0.385 -1.103,0.896 -0.012,0.649 0.577,0.879 1.234,1.074 1.045,0.319 2.22,1.014 3.065,1.818 0.317,0.295 0.561,0.432 0.837,0.47 L 4.093,4.264 C 4.597,4.264 4.938,3.917 4.95,3.417 4.966,2.562 4.252,2.022 2.231,0.932 0.833,0.195 0.425,0.01 0,0 M 0.669,-2.973 C 0.487,-3.236 0.353,-3.336 -0.075,-3.504 -0.273,-3.576 -0.347,-3.619 -0.524,-3.725 l -0.081,-0.046 c -1.011,-0.881 -1.755,-2.563 -1.726,-3.967 0.025,-1.129 0.535,-1.805 1.371,-1.805 0.809,0.018 1.639,0.647 2.198,1.637 0.476,0.842 0.749,1.84 0.731,2.677 -0.04,1.799 -0.72,2.18 -1.3,2.256 m -1.65,-8.134 -0.067,0 c -1.752,0 -3.055,1.378 -3.095,3.275 -0.037,1.908 1.175,4.394 2.822,5.783 0.553,0.488 1.209,0.725 2.064,0.742 1.748,0 2.962,-1.597 3.008,-3.884 0.035,-1.614 -0.624,-3.284 -1.763,-4.471 -0.872,-0.91 -1.926,-1.424 -2.969,-1.445"
             style="fill:#006328;fill-opacity:1;fill-rule:nonzero;stroke:none"
             id="path3396"
             inkscape:connector-curvature="0" /></g><g
           id="g3398"
           transform="translate(489.6934,317.0454)"><path
             d="m 0,0 c 0.332,0.008 0.556,-0.208 0.563,-0.565 0.013,-0.66 -0.553,-1.14 -2.567,-2.228 -1.361,-0.714 -1.742,-0.888 -2.1,-0.896 -0.466,-0.008 -0.83,0.26 -0.837,0.615 -0.008,0.359 0.234,0.556 1.028,0.793 1.067,0.324 2.29,1.037 3.181,1.881 0.268,0.254 0.46,0.368 0.679,0.399 C -0.025,0 -0.025,0 0,0 m -4.279,-7.212 c -0.245,-0.09 -0.327,-0.145 -0.571,-0.289 -1.109,-0.957 -1.898,-2.735 -1.867,-4.219 0.028,-1.295 0.676,-2.104 1.694,-2.084 0.88,0.019 1.802,0.697 2.412,1.783 0.504,0.891 0.786,1.941 0.767,2.822 -0.035,1.651 -0.602,2.491 -1.732,2.551 -0.212,-0.336 -0.266,-0.393 -0.703,-0.564 m -0.956,0.968 c 0.514,0.452 1.114,0.659 1.885,0.674 1.539,0.031 2.67,-1.459 2.715,-3.603 0.061,-2.834 -2.111,-5.575 -4.451,-5.623 -1.621,-0.034 -2.83,1.234 -2.867,2.994 -0.037,1.816 1.149,4.232 2.718,5.558"
             style="fill:#006328;fill-opacity:1;fill-rule:nonzero;stroke:none"
             id="path3400"
             inkscape:connector-curvature="0" /></g></g></g><g
       id="g3402"
       transform="translate(0,8)"><g
         id="g3404"
         clip-path="url(#clipPath3406)"><g
           id="g3410"
           transform="translate(426.5615,322.4004)"><path
             d="m 0,0 0,7.346 c 0,1.486 -0.405,2.836 -1.999,2.836 -1.566,0 -2.377,-1.35 -2.377,-2.89 l 0,-7.292 -4.456,0 0,13.45 4.294,0 0,-1.864 0.055,0 c 0.621,1.189 2.16,2.242 4.023,2.242 3.619,0 4.916,-2.808 4.916,-5.51 L 4.456,0 0,0 Z"
             style="fill:#82b721;fill-opacity:1;fill-rule:nonzero;stroke:none"
             id="path3412"
             inkscape:connector-curvature="0" /></g><g
           id="g3414"
           transform="translate(440.0664,332.6094)"><path
             d="m 0,0 c -2.08,0 -3.16,-1.702 -3.16,-3.43 0,-1.729 1.107,-3.484 3.186,-3.484 2.08,0 3.188,1.755 3.188,3.484 C 3.214,-1.702 2.079,0 0,0 m 0,-10.641 c -4.052,0 -7.454,2.809 -7.454,7.211 0,4.402 3.402,7.103 7.454,7.103 4.078,0 7.48,-2.701 7.48,-7.103 0,-4.402 -3.402,-7.211 -7.48,-7.211"
             style="fill:#82b721;fill-opacity:1;fill-rule:nonzero;stroke:none"
             id="path3416"
             inkscape:connector-curvature="0" /></g><g
           id="g3418"
           transform="translate(466.4541,322.4004)"><path
             d="m 0,0 0,7.346 c 0,1.54 -0.351,2.836 -1.917,2.836 -1.513,0 -2.242,-1.404 -2.242,-2.917 l 0,-7.265 -4.429,0 0,7.67 c 0,1.54 -0.595,2.512 -1.918,2.512 -1.404,0 -2.215,-1.269 -2.215,-2.89 l 0,-7.292 -4.456,0 0,13.45 4.294,0 0,-1.864 0.055,0 c 0.621,1.135 1.998,2.242 4.023,2.242 1.946,0 3.296,-0.837 4.052,-2.296 0.892,1.405 2.296,2.296 4.294,2.296 3.647,0 4.889,-2.971 4.889,-5.51 L 4.43,0 0,0 Z"
             style="fill:#82b721;fill-opacity:1;fill-rule:nonzero;stroke:none"
             id="path3420"
             inkscape:connector-curvature="0" /></g><path
           d="m 473.208,335.851 4.43,0 0,-13.45 -4.43,0 0,13.45 z m 2.215,1.863 c -1.432,0 -2.539,1.107 -2.539,2.431 0,1.296 1.107,2.43 2.539,2.43 1.404,0 2.539,-1.08 2.539,-2.43 0,-1.378 -1.135,-2.431 -2.539,-2.431"
           style="fill:#82b721;fill-opacity:1;fill-rule:nonzero;stroke:none"
           id="path3422"
           inkscape:connector-curvature="0" /><g
           id="g3424"
           transform="translate(489.332,331.502)"><path
             d="m 0,0 c -0.486,0.648 -1.458,1.081 -2.35,1.081 -1.863,0 -3.105,-1.594 -3.105,-3.457 0,-1.864 1.215,-3.431 3.159,-3.431 0.892,0 1.864,0.351 2.404,1 l 2.457,-2.998 c -1.106,-1.081 -2.997,-1.729 -4.968,-1.729 -4.241,0 -7.535,2.701 -7.535,7.158 0,4.375 3.321,7.157 7.507,7.157 1.918,0 3.944,-0.73 4.996,-1.81 L 0,0 Z"
             style="fill:#82b721;fill-opacity:1;fill-rule:nonzero;stroke:none"
             id="path3426"
             inkscape:connector-curvature="0" /></g><g
           id="g3428"
           transform="translate(398.7949,331.502)"><path
             d="m 0,0 c -0.486,0.648 -1.458,1.081 -2.35,1.081 -1.863,0 -3.105,-1.594 -3.105,-3.457 0,-1.864 1.215,-3.431 3.159,-3.431 0.892,0 1.864,0.351 2.404,1 l 2.457,-2.998 c -1.106,-1.081 -2.997,-1.729 -4.968,-1.729 -4.241,0 -7.535,2.701 -7.535,7.158 0,4.375 3.321,7.157 7.507,7.157 1.918,0 3.944,-0.73 4.996,-1.81 L 0,0 Z"
             style="fill:#006328;fill-opacity:1;fill-rule:nonzero;stroke:none"
             id="path3430"
             inkscape:connector-curvature="0" /></g><g
           id="g3432"
           transform="translate(408.5186,332.6094)"><path
             d="m 0,0 c -2.08,0 -3.16,-1.702 -3.16,-3.43 0,-1.729 1.107,-3.484 3.186,-3.484 2.08,0 3.188,1.755 3.188,3.484 C 3.214,-1.702 2.079,0 0,0 m 0,-10.641 c -4.052,0 -7.454,2.809 -7.454,7.211 0,4.402 3.402,7.103 7.454,7.103 4.078,0 7.481,-2.701 7.481,-7.103 0,-4.402 -3.403,-7.211 -7.481,-7.211"
             style="fill:#006328;fill-opacity:1;fill-rule:nonzero;stroke:none"
             id="path3434"
             inkscape:connector-curvature="0" /></g><g
           id="g3436"
           transform="translate(381.1309,333.2305)"><path
             d="m 0,0 c 1.755,0 2.646,-1.161 2.646,-2.565 l -5.698,0 C -2.944,-1.188 -1.702,0 0,0 M 3.001,-6.597 C 2.399,-7.329 1.478,-7.859 0.162,-7.859 c -1.594,0 -3.079,1.053 -3.214,2.539 l 9.75,0 c 0.027,0.324 0.027,0.702 0.027,1.053 0,4.591 -2.782,7.319 -6.752,7.319 -4.078,0 -7.265,-2.809 -7.265,-7.211 0,-4.537 3.349,-7.103 7.399,-7.103 2.168,0 3.935,0.657 5.21,1.845 l -2.316,2.82 z"
             style="fill:#006328;fill-opacity:1;fill-rule:nonzero;stroke:none"
             id="path3438"
             inkscape:connector-curvature="0" /></g></g></g><path
       d="m 372.219,318.743 -38.739,0 0,38.281 38.739,0 0,-38.281 z"
       style="fill:#82b721;fill-opacity:1;fill-rule:nonzero;stroke:none"
       id="path3440"
       inkscape:connector-curvature="0" /><g
       id="g3442"
       transform="translate(0,8)"><g
         id="g3444"
         clip-path="url(#clipPath3446)"><g
           id="g3450"
           transform="translate(356.7793,338.8149)"><path
             d="m 0,0 c 1.457,0 2.188,-0.728 2.188,-2.188 0,-2.438 -1.209,-4.378 -3.627,-5.817 -1.479,-0.865 -3.764,-1.664 -6.856,-2.39 C -5.97,-3.465 -3.209,0 0,0 m 0.547,-9.242 c 3.531,1.783 5.301,4.137 5.301,7.054 0,2.611 -1.548,3.915 -4.639,3.915 -3.688,0 -7.018,-1.652 -9.994,-4.951 -2.881,-3.206 -4.32,-6.672 -4.32,-10.396 0,-4.781 3.015,-7.168 9.044,-7.168 4.819,0 9.166,1.35 13.045,4.056 2.787,1.942 4.672,4.215 5.652,6.811 0,0 0.751,2.405 0.751,4.831 0,2.454 -0.751,4.592 -0.751,4.592 -0.849,2.428 -2.377,4.554 -4.585,6.373 -2.65,2.15 -5.694,3.459 -9.131,3.924 0,0 -2.178,0.18 -3.057,0.18 -0.879,0 -2.776,-0.18 -2.776,-0.18 -4.54,-0.613 -8.571,-2.7 -12.094,-6.272 -2.749,-2.788 -4.607,-5.879 -5.579,-9.271 0,0 -0.729,-2.386 -0.729,-5.295 0,-3.682 0.729,-5.485 0.729,-5.485 0.935,-2.699 2.693,-5.013 5.277,-6.947 2.909,-2.167 6.234,-3.486 9.981,-3.954 0,0 2.135,-0.282 3.105,-0.282 1.54,0 3.193,0.282 3.193,0.282 4.817,0.605 9.182,2.631 13.096,6.088 l -1.527,1.123 c -4.242,-3.27 -8.801,-4.895 -13.678,-4.895 -4.531,0 -8.381,1.061 -11.549,3.199 -3.628,2.438 -5.441,5.831 -5.441,10.173 0,4.919 1.938,9.353 5.817,13.303 3.876,3.948 8.273,5.921 13.188,5.921 3.647,0 6.901,-1.181 9.763,-3.545 3.011,-2.473 4.52,-5.495 4.52,-9.069 0,-3.857 -1.612,-7.035 -4.837,-9.53 -3.224,-2.498 -7.611,-3.744 -13.161,-3.744 -2.63,0 -3.946,1.305 -3.946,3.918 0,0.461 0.049,1.246 0.145,2.359 4.224,0.979 7.286,1.938 9.187,2.882"
             style="fill:#ffffff;fill-opacity:1;fill-rule:nonzero;stroke:none"
             id="path3452"
             inkscape:connector-curvature="0" /></g></g></g></g></svg>